<svg width="122" height="80" fill="none" xmlns="http://www.w3.org/2000/svg"><g clip-path="url(#clip0_1490_11933)"><path d="M58.289 6.055L23.254 51.092s-8.523 9.282-1.441 21.42l18.238 24.66s3.133 4.888 9.589 4.888h13.725s-2.193-.714-3.51-2.471L39.488 72.127s-3.322-4.668-3.071-9.446c0 0 .25-4.175 3.008-8.074l19.053-25.1 22.625 30.702s2.57 3.35-.126 6.041c0 0-1.629 1.538-5.765.33l7.896 10.655s1.442 1.703 3.76 1.703c0 0 1.63 0 3.197-1.648l5.891-8.293s4.262-4.943-.25-12.633L58.35 6l-.062.055zm46.127 91.886l17.361-22.903s8.523-9.282 1.441-21.42l-31.462-42.51S88.623 6.22 82.167 6.22H68.442s2.193.769 3.51 2.471l32.903 43.884s4.387 5.822 3.76 10.82c0 0-.25 4.174-3.008 8.073L94.263 87.011c-1.88 2.142-3.886 2.197-3.886 2.197h-6.893c-2.257-.22-3.886-2.526-3.886-2.526L63.929 65.866s-2.507-3.35.126-6.041c0 0 1.63-1.538 5.766-.33L61.924 48.84s-1.442-1.703-3.76-1.703c0 0-1.63 0-3.197 1.648l-5.891 8.293s-4.262 4.943.25 12.633l21.121 28.395s2.883 3.899 7.145 3.899h18.99s4.701.11 7.834-4.064z" fill="#F5F5F5"/></g><defs><clipPath id="clip0_1490_11933"><path fill="#fff" d="M0 0h122v80H0z"/></clipPath></defs></svg>