<svg width="20" height="20" fill="none" xmlns="http://www.w3.org/2000/svg"><path fill-rule="evenodd" clip-rule="evenodd" d="M9.583 2.917c.336 0 .607.271.607.607v7.737l3.025-2.846a.607.607 0 01.832.884L10 13.11a.607.607 0 01-.832 0L5.12 9.299a.607.607 0 11.832-.884l3.024 2.846V3.524c0-.336.272-.607.607-.607zM3.107 12.82c.335 0 .607.272.607.607v1.524c0 .231.097.46.283.636.188.176.45.28.73.28h9.713c.28 0 .542-.104.73-.28a.873.873 0 00.282-.636v-1.524a.607.607 0 111.215 0v1.524c0 .578-.244 1.123-.666 1.52a2.28 2.28 0 01-1.56.611H4.726a2.279 2.279 0 01-1.56-.611 2.087 2.087 0 01-.666-1.52v-1.524c0-.335.272-.607.607-.607z" fill="#333"/></svg>