<svg width="25" height="22" fill="none" xmlns="http://www.w3.org/2000/svg"><path d="M5.65 8.12a.816.816 0 100 1.63.816.816 0 000-1.63zm8.066-.087a.88.88 0 100 1.76.88.88 0 000-1.76z" fill="#31BC69"/><path d="M21.02 0H3.647A3.173 3.173 0 00.474 3.173v10.31a3.173 3.173 0 003.173 3.174h6.136l2.087 4.917s.144.426.491.426c.348 0 .49-.426.49-.426l2.088-4.917h6.08a3.173 3.173 0 003.174-3.173V3.174A3.173 3.173 0 0021.02 0zM7.924 9.114c-.01 1.885-1.958 1.939-1.958 1.939-.754 0-1.18-.5-1.18-.5v.34H3.367V5.04s-.006-.002 0-.004v.004c.09.013 1.42-.004 1.42-.004v2.239c.333-.57 1.298-.56 1.298-.56 2.1.196 1.838 2.4 1.838 2.4h.001zm2.498-2.218v4.008H9.034V6.936c0-.54-.67-.69-.67-.69V4.847c2.218.09 2.058 2.049 2.058 2.049zm3.293 4.16c-1.287 0-2.33-.96-2.33-2.143 0-1.183 1.043-2.143 2.33-2.143 1.287 0 2.329.96 2.329 2.143 0 1.183-1.043 2.143-2.33 2.143zm7.61 0s.02 2.036-2.05 2.036h-.63v-1.319h.38s.87.08.86-1.26c0 0-.169.543-1.389.543 0 0-1.729-.124-1.729-1.811v-.64s.04-1.75 1.939-1.888c0 0 .749-.08 1.21.54v-.43h1.409v4.23z" fill="#31BC69"/><path d="M19.118 8.055a.86.86 0 10.001 1.72.86.86 0 00-.001-1.72z" fill="#31BC69"/></svg>