<svg width="21" height="20" fill="none" xmlns="http://www.w3.org/2000/svg"><path fill-rule="evenodd" clip-rule="evenodd" d="M15.88 16.494l-3.095-3.095.833-.833 3.095 3.095a.59.59 0 01-.834.833z" fill="#333"/><path fill-rule="evenodd" clip-rule="evenodd" d="M3.552 9.42a6.087 6.087 0 1112.174 0 6.087 6.087 0 01-12.174 0zm6.087-4.909a4.91 4.91 0 100 9.819 4.91 4.91 0 000-9.819z" fill="#333"/><path fill-rule="evenodd" clip-rule="evenodd" d="M7.03 9.42a.59.59 0 01.59-.589h4.04a.59.59 0 010 1.178H7.62a.59.59 0 01-.59-.589z" fill="#333"/><path fill-rule="evenodd" clip-rule="evenodd" d="M9.64 12.03a.59.59 0 01-.59-.59V7.4a.59.59 0 111.178 0v4.04a.59.59 0 01-.589.59z" fill="#333"/></svg>