<svg width="52" height="52" fill="none" xmlns="http://www.w3.org/2000/svg"><path fill-rule="evenodd" clip-rule="evenodd" d="M15.032 9.077c-.727 0-1.425.27-1.939.75a2.483 2.483 0 00-.803 1.814v28.718c0 .68.289 1.332.803 1.813.514.48 1.212.751 1.939.751h21.936c.727 0 1.424-.27 1.938-.75a2.487 2.487 0 00.803-1.814V19.333H32.58a3.978 3.978 0 01-2.714-1.051 3.476 3.476 0 01-1.124-2.538V9.077h-13.71zm17 2.176l5.35 5.003H32.58a.568.568 0 01-.387-.15.497.497 0 01-.161-.362v-4.491zm-21.265-3.6C11.897 6.593 13.432 6 15.032 6h15.355c.436 0 .855.162 1.163.45l10.968 10.257c.308.288.482.68.482 1.088v22.564c0 1.496-.636 2.93-1.767 3.989C40.102 45.406 38.567 46 36.968 46H15.032c-1.6 0-3.134-.594-4.265-1.652C9.635 43.29 9 41.855 9 40.359V11.641c0-1.496.635-2.93 1.767-3.989zm7.007 20.398c0-.85.736-1.538 1.645-1.538H32.58c.909 0 1.646.689 1.646 1.538 0 .85-.737 1.539-1.646 1.539H19.42c-.91 0-1.646-.69-1.646-1.539zm0 8.205c0-.85.736-1.538 1.645-1.538H32.58c.909 0 1.646.689 1.646 1.538 0 .85-.737 1.539-1.646 1.539H19.42c-.91 0-1.646-.689-1.646-1.539z" fill="#fff"/></svg>