<svg width="24" height="24" fill="none" xmlns="http://www.w3.org/2000/svg"><g clip-path="url(#clip0_1052_16248)"><path d="M16.938 2H7.062A5.062 5.062 0 002 7.062v9.876A5.062 5.062 0 007.062 22h3.394v-7.145H7.948V12h2.508V9.822c0-2.475 1.476-3.843 3.732-3.843 1.082 0 2.212.193 2.212.193v2.431h-1.247c-1.227 0-1.61.761-1.61 1.543V12h2.74l-.437 2.856h-2.302v7.143h3.393A5.062 5.062 0 0022 16.936V7.062A5.062 5.062 0 0016.938 2z" fill="#fff"/></g><defs><clipPath id="clip0_1052_16248"><path fill="#fff" transform="translate(2 2)" d="M0 0h20v20H0z"/></clipPath></defs></svg>