<svg width="30" height="30" fill="none" xmlns="http://www.w3.org/2000/svg"><path fill-rule="evenodd" clip-rule="evenodd" d="M10.55 7.439a8.835 8.835 0 0110.654 1.377 8.87 8.87 0 012.537 5.077.905.905 0 01-1.793.25 7.058 7.058 0 00-2.02-4.042 7.032 7.032 0 00-8.47-1.095 7.043 7.043 0 00-2.3 2.142h1.92a.905.905 0 010 1.81H7.154a.905.905 0 01-.905-.905v-3.93a.905.905 0 111.81 0v1.463a8.852 8.852 0 012.49-2.147zm-3.52 7.647a.905.905 0 011.022.772 7.058 7.058 0 002.019 4.04 7.032 7.032 0 008.471 1.096 7.044 7.044 0 002.3-2.142h-1.92a.905.905 0 010-1.81h3.923c.5 0 .905.405.905.905v3.93a.905.905 0 11-1.81 0v-1.463a8.836 8.836 0 01-13.144.77 8.869 8.869 0 01-2.538-5.077.905.905 0 01.773-1.021z" fill="#333"/></svg>