<svg width="20" height="20" fill="none" xmlns="http://www.w3.org/2000/svg"><path fill-rule="evenodd" clip-rule="evenodd" d="M4.697 4.697a7.5 7.5 0 1110.606 10.606A7.5 7.5 0 014.697 4.697zM10 3.654a6.346 6.346 0 100 12.692 6.346 6.346 0 000-12.692z" fill="#666"/><path fill-rule="evenodd" clip-rule="evenodd" d="M9.423 7.692c0-.318.258-.577.577-.577h.008a.577.577 0 010 1.154H10a.577.577 0 01-.577-.577zM10 9.423c.319 0 .577.258.577.577v3.077a.577.577 0 01-1.154 0V10c0-.319.258-.577.577-.577z" fill="#666"/></svg>