<svg width="80" height="80" fill="none" xmlns="http://www.w3.org/2000/svg"><path fill-rule="evenodd" clip-rule="evenodd" d="M13.888 12.49a5.398 5.398 0 00-5.397 5.394v36.517a5.394 5.394 0 005.397 5.395h24.244a1.245 1.245 0 110 2.49H13.888A7.89 7.89 0 016 54.4V17.884A7.883 7.883 0 0113.888 10h13.284c.33 0 .647.131.88.365l9.6 9.594h22.731a7.89 7.89 0 017.888 7.884v9.296a1.245 1.245 0 01-2.49 0v-9.296a5.393 5.393 0 00-5.398-5.394H37.135c-.33 0-.647-.131-.88-.365l-9.599-9.594H13.888z" fill="#CCC"/><path fill-rule="evenodd" clip-rule="evenodd" d="M59.055 41.122c-8.254 0-14.945 6.689-14.945 14.94C44.11 64.311 50.8 71 59.055 71 67.309 71 74 64.312 74 56.061c0-8.25-6.691-14.939-14.945-14.939zm-3.523 10.01a.997.997 0 00-1.409 1.408l3.523 3.521-3.523 3.521a.996.996 0 101.41 1.409l3.522-3.521 3.523 3.52a.996.996 0 001.408-1.408l-3.522-3.52 3.523-3.522a.996.996 0 10-1.41-1.408l-3.522 3.52-3.523-3.52z" fill="#CCC"/></svg>