<svg width="24" height="24" fill="none" xmlns="http://www.w3.org/2000/svg"><path fill-rule="evenodd" clip-rule="evenodd" d="M4.475 2.001h15.052L19.525 2C21.445 2 23 3.687 23 5.768v8.94c0 2.08-1.556 3.768-3.475 3.768H14.34l-1.77 3.112s-.014.037-.059.094A.586.586 0 0112 22a.59.59 0 01-.515-.322c-.038-.051-.057-.088-.057-.088l-1.77-3.113H4.476C2.555 18.477 1 16.79 1 14.709v-8.94c0-2.081 1.556-3.768 3.475-3.768zm3.744 6.086V6.683c1.968 0 1.913 2.278 1.913 2.278v3.922H8.834v-3.59c0-1.237-.615-1.206-.615-1.206zM4.743 9.124c.545-.572 1.145-.572 1.145-.572 1.829 0 1.898 2.217 1.898 2.217 0 2.188-1.898 2.263-1.898 2.263-.81 0-1.131-.626-1.131-.626v.474H3.396V6.817h1.347v2.307zm-.017 1.693c0 .517.388.935.865.935.48 0 .866-.418.866-.935 0-.518-.388-.936-.866-.936-.477 0-.865.418-.865.936zm8.582-2.245s-2.225 0-2.225 2.246c0 0-.072 2.215 2.225 2.215 0 0 2.277-.004 2.277-2.215 0 0 .074-2.246-2.277-2.246zm0 3.181c-.477 0-.866-.418-.866-.935 0-.518.389-.936.866-.936.478 0 .866.418.866.936 0 .517-.387.935-.866.935zM19.3 9.127v-.408h1.309v4.107c0 2.297-1.968 2.274-1.968 2.274h-.524v-1.29h.325c.953 0 .858-1.064.858-1.064v-.34c-.418.589-1.182.555-1.182.555-1.874 0-1.853-2.159-1.853-2.159 0-2.316 1.905-2.23 1.905-2.23.743 0 1.13.555 1.13.555zm-1.671 1.69c0 .518.388.936.866.936.479 0 .866-.418.866-.935 0-.518-.387-.936-.866-.936s-.866.418-.866.936z" fill="#fff"/></svg>