<svg width="32" height="32" fill="none" xmlns="http://www.w3.org/2000/svg"><path d="M25.1 25.1V16A9.1 9.1 0 0016 6.9v0A9.1 9.1 0 006.9 16v9.1" stroke="#fff" stroke-width="1.5"/><path d="M18.6 6.9v0A2.6 2.6 0 0016 4.3v0a2.6 2.6 0 00-2.6 2.6v0" stroke="#fff" stroke-width="1.5" stroke-linecap="round"/><path d="M5.05 24.775c0-.124.1-.225.225-.225h21.45a.225.225 0 110 .45H5.275a.225.225 0 01-.225-.225z" stroke="#fff" stroke-width="1.5"/><path d="M12.1 25.1a3.9 3.9 0 007.8 0" stroke="#fff" stroke-width="1.5" stroke-linecap="round" stroke-linejoin="round"/></svg>