<svg width="52" height="52" fill="none" xmlns="http://www.w3.org/2000/svg"><path fill-rule="evenodd" clip-rule="evenodd" d="M4.875 10.574c0-.904.723-1.636 1.615-1.636h38.77c.892 0 1.615.732 1.615 1.636 0 .904-.723 1.636-1.615 1.636h-1.616v18.818a5.765 5.765 0 01-1.656 4.05 5.617 5.617 0 01-3.998 1.678h-10.5v4.908h4.847c.892 0 1.615.733 1.615 1.637 0 .903-.723 1.636-1.615 1.636h-6.422a1.796 1.796 0 01-.08 0h-6.422a1.626 1.626 0 01-1.615-1.636c0-.904.723-1.637 1.616-1.637h4.846v-4.908h-10.5c-1.5 0-2.938-.604-3.998-1.678a5.765 5.765 0 01-1.656-4.05V12.21H6.49a1.626 1.626 0 01-1.615-1.636zm6.461 1.636v18.818c0 .651.256 1.276.71 1.736a2.41 2.41 0 001.714.719h24.23c.643 0 1.26-.259 1.714-.719a2.47 2.47 0 00.71-1.736V12.21H11.335zm8.077 4.909c.893 0 1.616.732 1.616 1.636v8.182c0 .904-.723 1.636-1.616 1.636a1.626 1.626 0 01-1.615-1.636v-8.182c0-.904.723-1.636 1.616-1.636zm12.924 4.091c.892 0 1.615.733 1.615 1.637v4.09c0 .904-.723 1.637-1.615 1.637a1.626 1.626 0 01-1.616-1.637v-4.09c0-.904.723-1.637 1.616-1.637zm-6.462.409c.892 0 1.615.732 1.615 1.636v3.273c0 .903-.723 1.636-1.615 1.636a1.626 1.626 0 01-1.615-1.636v-3.273c0-.904.723-1.636 1.615-1.636z" fill="#fff"/></svg>