<svg width="24" height="24" fill="none" xmlns="http://www.w3.org/2000/svg"><path fill-rule="evenodd" clip-rule="evenodd" d="M15.112 4.693a.774.774 0 010 1.095l-3.73 3.73a.775.775 0 01-.275.177l-3.573 1.34-.732.732 5.431 5.432.733-.733 1.34-3.572a.774.774 0 01.177-.276l3.73-3.73a.774.774 0 011.094 1.095l-3.61 3.611-1.34 3.573a.776.776 0 01-.178.275l-1.398 1.399a.774.774 0 01-1.095 0l-6.527-6.527a.774.774 0 010-1.095l1.399-1.398a.774.774 0 01.276-.178l3.572-1.34 3.61-3.61a.774.774 0 011.096 0z" fill="#333"/><path fill-rule="evenodd" clip-rule="evenodd" d="M9.517 14.483a.774.774 0 010 1.095l-4.195 4.195a.774.774 0 01-1.095-1.095l4.195-4.195a.774.774 0 011.095 0zM13.55 4.227a.774.774 0 011.095 0l5.128 5.128a.774.774 0 01-1.095 1.095L13.55 5.322a.774.774 0 010-1.095z" fill="#333"/></svg>