<svg width="38" height="38" fill="none" xmlns="http://www.w3.org/2000/svg"><path fill-rule="evenodd" clip-rule="evenodd" d="M18.212 5.613c.634 0 1.148.514 1.148 1.147v14.625l5.716-5.38a1.147 1.147 0 111.573 1.671l-7.65 7.2a1.148 1.148 0 01-1.573 0l-7.65-7.2a1.148 1.148 0 011.573-1.671l5.716 5.38V6.76c0-.633.514-1.147 1.147-1.147zm-12.24 18.72c.634 0 1.148.514 1.148 1.147v2.88c0 .437.183.87.535 1.201.354.333.849.532 1.377.532h18.36c.53 0 1.024-.199 1.378-.532a1.65 1.65 0 00.535-1.2v-2.88a1.147 1.147 0 112.295 0v2.88a3.944 3.944 0 01-1.257 2.871 4.307 4.307 0 01-2.95 1.156H9.032a4.307 4.307 0 01-2.95-1.156 3.944 3.944 0 01-1.258-2.872v-2.88c0-.634.514-1.147 1.147-1.147z" fill="#fff"/></svg>