<svg width="52" height="52" fill="none" xmlns="http://www.w3.org/2000/svg"><path fill-rule="evenodd" clip-rule="evenodd" d="M7.198 7.198A4.09 4.09 0 0110.091 6h22.727a4.09 4.09 0 014.091 4.09v.456h5A4.09 4.09 0 0146 14.636v25A6.364 6.364 0 0139.636 46h-25A8.637 8.637 0 016 37.364V10.09a4.09 4.09 0 011.198-2.893zm26.689 35.166h-19.25a5 5 0 01-5-5V10.09a.455.455 0 01.454-.455h22.727a.455.455 0 01.455.455v29.545c0 .953.213 1.883.614 2.728zm3.022-28.182v25.454a2.727 2.727 0 105.455 0v-25a.454.454 0 00-.455-.454h-5zm-21.818 2.726c0-1.004.814-1.818 1.818-1.818H26a1.818 1.818 0 010 3.637h-9.09a1.818 1.818 0 01-1.82-1.819zm0 9.092c0-1.004.814-1.819 1.818-1.819H26a1.818 1.818 0 010 3.637h-9.09A1.818 1.818 0 0115.09 26zm0 9.09c0-1.003.814-1.817 1.818-1.817H26a1.818 1.818 0 010 3.636h-9.09a1.818 1.818 0 01-1.82-1.818z" fill="#fff"/></svg>