<svg width="52" height="52" fill="none" xmlns="http://www.w3.org/2000/svg"><path fill-rule="evenodd" clip-rule="evenodd" d="M23.942 9.333c-.692 0-1.34.273-1.806.735a2.353 2.353 0 00-.707 1.673c0 .61.244 1.214.707 1.673a2.569 2.569 0 001.806.734h4.115c.692 0 1.34-.273 1.807-.734a2.355 2.355 0 00.707-1.673c0-.61-.244-1.214-.707-1.673a2.569 2.569 0 00-1.807-.735h-4.115zm-4.011-1.681A5.7 5.7 0 0123.942 6h4.115a5.7 5.7 0 014.011 1.652 5.75 5.75 0 011.457 2.422h2.76a5.7 5.7 0 014.012 1.652A5.754 5.754 0 0142 15.815v24.444c0 1.55-.623 3.02-1.703 4.089A5.7 5.7 0 0136.286 46H15.714a5.7 5.7 0 01-4.011-1.652A5.754 5.754 0 0110 40.259V15.815c0-1.55.623-3.02 1.703-4.09a5.7 5.7 0 014.011-1.651h2.76a5.745 5.745 0 011.457-2.422zm-1.457 5.755h-2.76a2.57 2.57 0 00-1.807.735 2.355 2.355 0 00-.707 1.673v24.444c0 .61.244 1.214.707 1.673a2.57 2.57 0 001.807.735h20.572a2.57 2.57 0 001.807-.735 2.354 2.354 0 00.707-1.673V15.815c0-.61-.244-1.214-.707-1.673a2.57 2.57 0 00-1.807-.735h-2.76a5.748 5.748 0 01-1.458 2.422 5.7 5.7 0 01-4.011 1.652h-4.115a5.701 5.701 0 01-4.011-1.652 5.744 5.744 0 01-1.457-2.422zM18.228 26c0-.92.716-1.667 1.6-1.667h12.343c.884 0 1.6.747 1.6 1.667s-.716 1.667-1.6 1.667H19.828c-.883 0-1.6-.747-1.6-1.667zm0 8.148c0-.92.716-1.666 1.6-1.666h12.343c.884 0 1.6.746 1.6 1.666 0 .921-.716 1.667-1.6 1.667H19.828c-.883 0-1.6-.746-1.6-1.666z" fill="#fff"/></svg>