<svg width="52" height="52" fill="none" xmlns="http://www.w3.org/2000/svg"><path fill-rule="evenodd" clip-rule="evenodd" d="M11.104 10.17A7.434 7.434 0 0116.355 8h7.716c1.97 0 3.859.78 5.251 2.17a7.404 7.404 0 012.175 5.242v25.315h6.366v-4.678a5.498 5.498 0 01-2.248-1.357 5.481 5.481 0 01-1.61-3.88v-3.85c0-1.455.58-2.85 1.61-3.88a5.502 5.502 0 017.775 0 5.481 5.481 0 011.61 3.88v3.85c0 1.455-.58 2.851-1.61 3.88a5.498 5.498 0 01-2.248 1.357v4.678h2.218c.906 0 1.64.733 1.64 1.636 0 .904-.734 1.637-1.64 1.637H8.64C7.734 44 7 43.267 7 42.363c0-.903.734-1.636 1.64-1.636h.289V15.412c0-1.966.782-3.851 2.175-5.241zm1.104 30.557h6.366v-6.064c0-.904.734-1.637 1.64-1.637.905 0 1.639.733 1.639 1.637v6.064h6.365V15.412c0-1.098-.437-2.15-1.215-2.927a4.151 4.151 0 00-2.932-1.212h-7.716a4.15 4.15 0 00-2.932 1.212 4.135 4.135 0 00-1.215 2.927v25.315zm4.437-21.465c0-.904.734-1.637 1.64-1.637h3.857a1.638 1.638 0 110 3.273h-3.858c-.905 0-1.64-.732-1.64-1.636zm22.857 5.486a2.212 2.212 0 00-2.218 2.214v3.85a2.22 2.22 0 004.436 0v-3.85a2.212 2.212 0 00-2.218-2.214zm-22.857 2.215c0-.904.734-1.637 1.64-1.637h3.857c.906 0 1.64.733 1.64 1.637 0 .903-.734 1.636-1.64 1.636h-3.858c-.905 0-1.64-.733-1.64-1.636z" fill="#fff"/></svg>