<svg width="20" height="20" fill="none" xmlns="http://www.w3.org/2000/svg"><path fill-rule="evenodd" clip-rule="evenodd" d="M10 4.548c-.695 0-1.362.277-1.853.77a2.636 2.636 0 00-.768 1.86v1.013h5.242V7.179c0-.698-.276-1.367-.768-1.86A2.616 2.616 0 0010 4.547zm3.83 3.643V7.179c0-1.02-.403-1.998-1.121-2.72a3.823 3.823 0 00-5.418 0A3.853 3.853 0 006.17 7.18v1.01h-.201a2.21 2.21 0 00-1.568.652 2.23 2.23 0 00-.65 1.574v4.857c0 .59.234 1.157.65 1.574.415.418.98.652 1.568.652h8.064c.588 0 1.152-.234 1.568-.652a2.23 2.23 0 00.65-1.574v-4.857a2.23 2.23 0 00-.65-1.574 2.213 2.213 0 00-1.568-.652h-.201zM5.969 9.405a1.006 1.006 0 00-1.008 1.012v4.857a1.014 1.014 0 001.008 1.012h8.064a1.006 1.006 0 001.008-1.012v-4.857a1.014 1.014 0 00-1.008-1.012H5.968z" fill="#888"/></svg>