<svg width="52" height="52" fill="none" xmlns="http://www.w3.org/2000/svg"><path fill-rule="evenodd" clip-rule="evenodd" d="M15.167 10.617A2.383 2.383 0 0012.783 13v20.186a6.28 6.28 0 012.384-.47h24.05v-22.1h-24.05zm27.95-1.95a1.95 1.95 0 00-1.95-1.95h-26A6.284 6.284 0 008.883 13v26a6.283 6.283 0 006.284 6.283h26a1.95 1.95 0 001.95-1.95V8.668zm-3.9 27.95h-24.05a2.383 2.383 0 100 4.767h24.05v-4.767zM17.55 17.334a1.95 1.95 0 011.95-1.95h13a1.95 1.95 0 010 3.9h-13a1.95 1.95 0 01-1.95-1.95z" fill="#fff"/></svg>