<svg width="21" height="20" fill="none" xmlns="http://www.w3.org/2000/svg"><path fill-rule="evenodd" clip-rule="evenodd" d="M9.802 2.917c.335 0 .607.272.607.607v7.738l3.025-2.847a.607.607 0 11.832.885l-4.048 3.81a.607.607 0 01-.832 0L5.338 9.3a.607.607 0 01.833-.885l3.024 2.847V3.524c0-.335.272-.607.607-.607zm-6.476 9.905c.335 0 .607.272.607.607v1.524c0 .23.097.46.283.635.188.176.45.281.729.281h9.714c.28 0 .542-.105.729-.28a.873.873 0 00.283-.636v-1.524a.607.607 0 011.214 0v1.524a2.09 2.09 0 01-.665 1.52c-.42.395-.982.61-1.56.61H4.944a2.279 2.279 0 01-1.561-.61 2.087 2.087 0 01-.665-1.52v-1.524c0-.335.272-.607.607-.607z" fill="#333"/></svg>