<svg width="80" height="80" fill="none" xmlns="http://www.w3.org/2000/svg"><path fill-rule="evenodd" clip-rule="evenodd" d="M21.528 7c.688 0 1.245.566 1.245 1.264v4.13H46.85v-4.13c0-.698.558-1.264 1.245-1.264.688 0 1.246.566 1.246 1.264v4.13h5.396c2.072 0 4.07.794 5.554 2.225a7.567 7.567 0 012.333 5.446v18.038c0 .699-.558 1.265-1.246 1.265a1.255 1.255 0 01-1.245-1.265v-3.961H9.491v24.36a5.02 5.02 0 001.557 3.613 5.533 5.533 0 003.839 1.529h23.577c.688 0 1.245.566 1.245 1.264 0 .698-.557 1.264-1.245 1.264H14.887a8.002 8.002 0 01-5.554-2.224A7.567 7.567 0 017 58.502V20.065c0-2.056.847-4.013 2.333-5.446a8.002 8.002 0 015.554-2.224h5.396v-4.13c0-.699.557-1.265 1.245-1.265zm-1.245 7.923h-5.396a5.534 5.534 0 00-3.839 1.529 5.02 5.02 0 00-1.557 3.613v11.548h50.641V20.065a5.02 5.02 0 00-1.558-3.613 5.532 5.532 0 00-3.838-1.529H49.34v3.456c0 .699-.558 1.265-1.246 1.265a1.255 1.255 0 01-1.245-1.265v-3.456H22.773v3.456c0 .699-.557 1.265-1.245 1.265a1.255 1.255 0 01-1.245-1.265v-3.456z" fill="#CCC"/><path fill-rule="evenodd" clip-rule="evenodd" d="M58.057 42.655c-8.253 0-14.944 6.793-14.944 15.173 0 8.38 6.69 15.172 14.944 15.172C66.31 73 73 66.207 73 57.828c0-8.38-6.69-15.173-14.943-15.173zm-3.523 10.166a.986.986 0 00-1.408 0 1.023 1.023 0 000 1.43l3.522 3.577-3.523 3.576a1.023 1.023 0 000 1.43.986.986 0 001.41 0l3.522-3.576 3.522 3.576a.986.986 0 001.409 0 1.022 1.022 0 000-1.43l-3.523-3.576 3.523-3.577a1.022 1.022 0 000-1.43.986.986 0 00-1.41 0l-3.521 3.576-3.523-3.576z" fill="#CCC"/></svg>