<svg width="52" height="52" fill="none" xmlns="http://www.w3.org/2000/svg"><path fill-rule="evenodd" clip-rule="evenodd" d="M23.121 9.333a.454.454 0 00-.454.455v12.727a.454.454 0 00.454.455H37.97c.442 0 .866.175 1.178.488l3.519 3.518V9.788a.455.455 0 00-.455-.455h-19.09zM20.443 7.11A3.788 3.788 0 0123.12 6h19.091A3.788 3.788 0 0146 9.788V31a1.667 1.667 0 01-2.845 1.178l-5.876-5.875H23.121a3.788 3.788 0 01-3.788-3.788V9.788c0-1.005.4-1.968 1.11-2.679zM9.788 22.667a.454.454 0 00-.455.454V40.31l3.519-3.519a1.667 1.667 0 011.178-.488h14.85a.455.455 0 00.454-.455v-4.242a1.667 1.667 0 013.334 0v4.242a3.788 3.788 0 01-3.788 3.788H14.72l-5.876 5.876A1.667 1.667 0 016 44.333V23.121a3.788 3.788 0 013.788-3.788h4.242a1.667 1.667 0 110 3.334H9.788z" fill="#fff"/></svg>