<svg width="49" height="34" fill="none" xmlns="http://www.w3.org/2000/svg"><path fill="#fff" d="M15.034 7.934h18.503v18.133H15.034z"/><path fill-rule="evenodd" clip-rule="evenodd" d="M43.262 1.016a6.082 6.082 0 014.294 4.294C48.567 9.096 48.57 17 48.57 17s0 7.904-1.015 11.69a6.082 6.082 0 01-4.294 4.294C39.475 34 24.286 34 24.286 34S9.096 34 5.31 32.984a6.082 6.082 0 01-4.294-4.293C0 24.904 0 17 0 17S0 9.096 1.016 5.31A6.082 6.082 0 015.31 1.016C9.096 0 24.286 0 24.286 0s15.19 0 18.976 1.016zM32.044 17.002l-12.618 7.284V9.716l12.618 7.286z" fill="red"/></svg>