<svg width="30" height="30" fill="none" xmlns="http://www.w3.org/2000/svg"><path fill-rule="evenodd" clip-rule="evenodd" d="M5.858 10.668a2.93 2.93 0 012.071-.858h14.142A2.93 2.93 0 0125 12.74v4.04a2.93 2.93 0 01-2.93 2.93h-2.02a.91.91 0 110-1.819h2.02a1.111 1.111 0 001.112-1.111v-4.04a1.111 1.111 0 00-1.111-1.111H7.929a1.111 1.111 0 00-1.11 1.11v4.04a1.11 1.11 0 001.11 1.112h2.02a.91.91 0 110 1.818H7.93A2.93 2.93 0 015 16.78v-4.04c0-.776.309-1.521.858-2.07z" fill="#333"/><path fill-rule="evenodd" clip-rule="evenodd" d="M9.898 4.608a2.93 2.93 0 012.072-.858h6.06a2.93 2.93 0 012.93 2.93v4.04a.91.91 0 01-1.819 0V6.68a1.111 1.111 0 00-1.11-1.112H11.97a1.111 1.111 0 00-1.111 1.111v4.04a.91.91 0 01-1.819 0V6.68c0-.777.309-1.522.858-2.071zM11.97 15.67a1.111 1.111 0 00-1.111 1.11v4.04a1.11 1.11 0 001.11 1.112h6.061a1.11 1.11 0 001.111-1.111v-4.04a1.111 1.111 0 00-1.11-1.112H11.97zm-2.072-.96a2.93 2.93 0 012.072-.859h6.06a2.93 2.93 0 012.93 2.93v4.04a2.93 2.93 0 01-2.93 2.929h-6.06a2.93 2.93 0 01-2.93-2.93v-4.04c0-.776.309-1.521.858-2.07z" fill="#333"/></svg>