<svg width="36" height="36" fill="none" xmlns="http://www.w3.org/2000/svg"><rect width="36" height="36" rx="18" fill="#F5F5F5"/><path fill-rule="evenodd" clip-rule="evenodd" d="M16.86 12.592a3.814 3.814 0 012.6-1.008 3.81 3.81 0 012.6 1.008 3.405 3.405 0 011.1 2.489c0 .943-.402 1.837-1.1 2.489l-4.65 4.338a2.24 2.24 0 01-1.526.594 2.24 2.24 0 01-1.527-.594 2.035 2.035 0 01-.656-1.488c0-.567.242-1.101.656-1.487l4.649-4.339a.665.665 0 01.908.973l-4.65 4.339a.705.705 0 00-.232.514c0 .184.078.37.233.515a.91.91 0 00.619.236.91.91 0 00.619-.236l4.649-4.338c.44-.41.677-.957.677-1.516 0-.56-.238-1.106-.677-1.516a2.483 2.483 0 00-1.692-.65c-.643 0-1.25.238-1.692.65l-4.649 4.338c-.724.676-1.122 1.583-1.122 2.517 0 .935.398 1.842 1.122 2.518a4.057 4.057 0 002.765 1.065 4.057 4.057 0 002.764-1.065l4.65-4.339a.665.665 0 11.907.973l-4.649 4.338a5.388 5.388 0 01-3.672 1.424 5.387 5.387 0 01-3.673-1.424c-.983-.917-1.544-2.171-1.544-3.49 0-1.318.561-2.572 1.544-3.49l4.65-4.338z" fill="#666"/></svg>