<svg width="35" height="44" fill="none" xmlns="http://www.w3.org/2000/svg"><path fill-rule="evenodd" clip-rule="evenodd" d="M17.075 7.255a.615.615 0 01.85 0l4.815 4.667a.57.57 0 010 .824.615.615 0 01-.85 0L17.5 8.492l-4.39 4.254a.615.615 0 01-.85 0 .57.57 0 010-.825l4.815-4.666z" fill="#07D"/><path d="M.818 27.19v-1.917h10.143v1.916H7.04V38H4.756V27.19H.818zm22.369 4.447c.008 4.113-2.505 6.539-5.836 6.539-3.349 0-5.845-2.435-5.836-6.54-.01-4.113 2.487-6.538 5.836-6.538 3.33 0 5.844 2.425 5.835 6.539zm-9.37 0c-.008 2.909 1.46 4.482 3.534 4.482 2.083 0 3.542-1.573 3.533-4.482.009-2.91-1.45-4.483-3.533-4.483-2.075 0-3.542 1.573-3.534 4.483zM24.866 38V25.273h4.78c2.919 0 4.474 1.776 4.483 4.22-.008 2.434-1.582 4.2-4.517 4.2H27.15V38h-2.285zm2.285-6.188h2.144c1.723-.008 2.496-.975 2.496-2.32 0-1.362-.773-2.303-2.496-2.303h-2.144v4.623z" fill="#07D"/></svg>