<svg width="44" height="44" fill="none" xmlns="http://www.w3.org/2000/svg"><path fill-rule="evenodd" clip-rule="evenodd" d="M5.958 22c0-.76.616-1.375 1.375-1.375h29.334a1.375 1.375 0 110 2.75H7.333c-.76 0-1.375-.616-1.375-1.375z" fill="#fff"/><path fill-rule="evenodd" clip-rule="evenodd" d="M37.595 20.985c.56.513.6 1.382.087 1.943L29.3 32.095a1.375 1.375 0 01-2.03-1.856l8.381-9.167c.512-.56 1.382-.6 1.943-.087z" fill="#fff"/><path fill-rule="evenodd" clip-rule="evenodd" d="M27.358 11.819a1.375 1.375 0 011.943.087l8.38 9.167a1.375 1.375 0 11-2.03 1.855l-8.38-9.167a1.375 1.375 0 01.087-1.942z" fill="#fff"/></svg>