<svg width="52" height="52" fill="none" xmlns="http://www.w3.org/2000/svg"><path fill-rule="evenodd" clip-rule="evenodd" d="M21.926 9.333c-.607 0-1.21.255-1.67.742a2.78 2.78 0 00-.737 1.905v2.648H32.48V11.98a2.78 2.78 0 00-.738-1.905 2.297 2.297 0 00-1.669-.742h-8.148zm13.889 5.295V11.98a6.112 6.112 0 00-1.649-4.194A5.629 5.629 0 0030.074 6h-8.148a5.629 5.629 0 00-4.092 1.786 6.112 6.112 0 00-1.649 4.194v2.648h-4.444a5.63 5.63 0 00-4.092 1.785A6.112 6.112 0 006 20.608V40.02c0 1.556.583 3.066 1.648 4.194A5.63 5.63 0 0011.74 46h28.52a5.63 5.63 0 004.093-1.786A6.112 6.112 0 0046 40.02V20.608a6.112 6.112 0 00-1.648-4.195 5.63 5.63 0 00-4.093-1.785h-4.444zm6.852 13.593v-7.613a2.78 2.78 0 00-.739-1.906 2.297 2.297 0 00-1.669-.741H11.741c-.607 0-1.21.254-1.669.741a2.78 2.78 0 00-.738 1.906v7.613A37.197 37.197 0 0026 32.183a37.197 37.197 0 0016.667-3.962zm-33.333 3.69v8.109c0 .731.275 1.415.738 1.905.46.487 1.063.742 1.67.742h28.517c.607 0 1.21-.255 1.67-.742a2.78 2.78 0 00.738-1.905v-8.108A40.467 40.467 0 0126 35.517c-5.74 0-11.41-1.232-16.666-3.605zM26 23.746c.92 0 1.667.746 1.667 1.667v.022a1.667 1.667 0 11-3.333 0v-.022c0-.92.746-1.667 1.666-1.667z" fill="#fff"/></svg>