<svg width="32" height="32" fill="none" xmlns="http://www.w3.org/2000/svg"><path d="M25.098 25.1V16a9.1 9.1 0 00-9.1-9.1v0a9.1 9.1 0 00-9.1 9.1v9.1" stroke="#fff" stroke-width="1.5"/><path d="M18.598 6.9v0a2.6 2.6 0 00-2.6-2.6v0a2.6 2.6 0 00-2.6 2.6v0" stroke="#fff" stroke-width="1.5" stroke-linecap="round"/><path d="M5.047 24.775c0-.124.1-.225.225-.225h21.45a.225.225 0 010 .45H5.272a.225.225 0 01-.225-.225z" stroke="#fff" stroke-width="1.5"/><path d="M12.098 25.1a3.9 3.9 0 107.8 0" stroke="#fff" stroke-width="1.5" stroke-linecap="round" stroke-linejoin="round"/></svg>