<svg width="24" height="24" fill="none" xmlns="http://www.w3.org/2000/svg"><path fill-rule="evenodd" clip-rule="evenodd" d="M8.343 3c.378 0 .685.31.685.692v1.154h5.944V3.692c0-.382.306-.692.685-.692a.69.69 0 01.686.692v1.154h1.143c.666 0 1.306.268 1.778.744.471.476.736 1.121.736 1.795v11.077a2.55 2.55 0 01-.736 1.794 2.502 2.502 0 01-1.778.744H6.514a2.502 2.502 0 01-1.778-.744A2.551 2.551 0 014 18.462V7.385c0-.674.265-1.32.736-1.795a2.502 2.502 0 011.778-.744h1.143V3.692A.69.69 0 018.343 3zm-.686 3.23H6.514c-.303 0-.594.122-.808.339a1.16 1.16 0 00-.335.816v3H18.63v-3c0-.306-.12-.6-.335-.816a1.137 1.137 0 00-.808-.338h-1.143v1.154a.689.689 0 01-.686.692.689.689 0 01-.685-.692V6.23H9.027v1.154a.689.689 0 01-.685.692.689.689 0 01-.686-.692V6.23zm10.972 5.54H5.37v6.692c0 .306.12.599.335.815.214.217.505.338.808.338h10.972c.303 0 .593-.121.808-.338a1.16 1.16 0 00.335-.816V11.77z" fill="#AAA"/></svg>