<svg width="210" height="32" fill="none" xmlns="http://www.w3.org/2000/svg"><path d="M170.591 15.754c-.644 0-1.22-.09-1.715-.277a3.722 3.722 0 01-1.22-.741 3.206 3.206 0 01-.742-1.071 3.356 3.356 0 01-.247-1.266v-.464c0-.442.083-.854.247-1.25.165-.405.412-.764.742-1.071.329-.322.734-.57 1.22-.757.495-.187 1.064-.277 1.715-.277.652 0 1.214.09 1.7.277.495.187.906.442 1.236.757.329.307.577.666.741 1.07.165.397.247.817.247 1.251v.464c0 .442-.082.862-.247 1.266a3.202 3.202 0 01-.741 1.07c-.33.308-.741.555-1.236.742-.486.187-1.048.277-1.7.277zm0-5.421c-.329 0-.621.052-.876.15a1.67 1.67 0 00-.606.381 1.48 1.48 0 00-.345.524 1.653 1.653 0 00-.112.592v.36c0 .194.037.396.112.591.075.195.195.382.345.547.164.157.367.277.606.382.255.09.547.135.876.135.33 0 .614-.045.854-.135a1.623 1.623 0 00.966-.929c.075-.202.112-.397.112-.591v-.36c0-.195-.037-.397-.112-.592a1.38 1.38 0 00-.359-.524 1.565 1.565 0 00-.607-.382 2.26 2.26 0 00-.854-.15zm6.246-2.255h2.074v7.894h-2.074V8.078zm2.074 8.582v6.755h-9.75V16.66h2.059v1.73h5.632v-1.73h2.059zm-2.059 5.04v-1.595h-5.632V21.7h5.632zm9.937-12.176h3.31v1.745h-8.761V9.524h3.377V7.876h2.074v1.648zm6.538 2.389h2.007v1.812h-2.007v3.939h-2.074V8.078h2.074v3.842-.007zm-9.773 6.44h9.773v5.242h-2.074v-3.49h-7.691V18.36l-.008-.007zm2.195-.839a5.7 5.7 0 01-1.551-.194 3.761 3.761 0 01-1.138-.562 2.586 2.586 0 01-.711-.839 2.197 2.197 0 01-.248-1.018v-.525c0-.36.083-.704.248-1.018.164-.322.404-.592.711-.824.307-.24.689-.427 1.138-.562.45-.142.966-.217 1.551-.217.584 0 1.085.075 1.535.217.464.135.846.322 1.153.562.307.232.547.502.711.824.165.322.248.659.248 1.018v.525c0 .36-.083.704-.248 1.018-.164.322-.404.6-.711.839-.307.232-.689.42-1.153.562-.45.134-.959.194-1.535.194zm0-4.134c-.547 0-.967.12-1.251.36-.285.232-.427.472-.427.726v.33c0 .254.142.502.427.741.284.232.704.345 1.251.345.546 0 .966-.113 1.25-.345.285-.24.427-.487.427-.741v-.33c0-.254-.142-.494-.427-.726-.284-.24-.704-.36-1.25-.36zm10.896-3.182h3.227v-2.03h2.112v2.03h3.078v1.782h-3.078v1.22c0 .323.023.607.067.877.045.262.113.517.195.756.097.232.225.457.382.674.157.217.345.45.562.69.142.164.307.344.494.546.195.187.404.382.607.591.209.195.419.405.629.607l.644.577-1.333 1.385c-.352-.33-.704-.666-1.056-1.003-.352-.352-.682-.69-.989-1.004a24.83 24.83 0 01-.824-.876c-.209-.255-.337-.442-.396-.577h-.03c-.075.157-.24.375-.48.66-.239.284-.501.568-.771.853-.307.322-.629.652-.959.989-.329.329-.726.703-1.183 1.123l-1.37-1.4a33.824 33.824 0 002.441-2.39c.24-.277.442-.524.607-.756a3.93 3.93 0 00.397-.689c.097-.24.164-.487.194-.741.045-.262.068-.562.068-.891V11.98h-3.228v-1.782h-.007zm7.676 3.347h2.688V8.078h2.089V23.4h-2.089v-8.043h-2.688v-1.812zm-44.618-5.392h.749V24.06h-.749V8.153zm-95.976.225H60.71V25.25h3.018V13.613h3.34V11.2h-3.34V8.378zm41.6 2.823h-2.067V8.378h-3.018v8.59h-7.196l-.113-.143v-6.073h5.654V8.333H90.08v9.286c0 .974.787 1.767 1.745 1.767h8.417v5.827h3.018v-11.6h2.067v11.6h3.026V8.378h-3.026V11.2zm24.159-2.868h-2.771v8.02h2.771v-2.935h3.168V11.29h-3.168V8.333zM68.041 19.491h8.297v5.722h3.018V19.49h8.298v-2.419H68.04v2.42zm9.81-6.695c1.438 2.554 4.463 2.539 4.463 2.539h4.471V13.23h-3.43s-2.696.104-3.437-2.472h6.867V8.34H68.91v2.42h6.867c-.742 2.568-3.438 2.47-3.438 2.47h-3.437v2.105h4.478s3.026.007 4.464-2.539h.007zm72.835 8.814V10.1a1.74 1.74 0 00-1.587-1.745V8.34h-14.364v2.42h13.188v10.85h-2.891v-8.185h-2.763v8.193h-2.494v-8.193h-2.763v8.193h-3.759v2.411h19.71v-2.411h-2.277v-.008zM56.194 8.752c-1.633-.8-4.179-.741-4.179-.741s-2.546-.052-4.179.741c0 0-2.935 1.221-3.018 4.883.083 3.67 3.018 4.883 3.018 4.883 1.625.8 4.179.748 4.179.748s2.546.053 4.179-.748c0 0 2.935-1.221 3.018-4.883-.083-3.67-3.018-4.883-3.018-4.883zm-1.753 7.556c-.95.435-2.426.412-2.426.412s-1.483.023-2.434-.412c0 0-1.707-.666-1.752-2.673.045-2 1.752-2.674 1.752-2.674.944-.434 2.434-.411 2.434-.411s1.475-.023 2.426.411c0 0 1.708.675 1.753 2.674-.045 2.007-1.753 2.673-1.753 2.673zm75.052 3.138c0-.966-.771-1.752-1.73-1.76h-15.659v2.217h14.618v5.34h2.771v-5.797zm-17.336-6.912s0 1.288.517 2.082c0 0 .666 1.16 2.239 1.655.786.247 1.827.292 3.25.292s2.456-.052 3.242-.292c1.573-.494 2.247-1.655 2.247-1.655.517-.794.517-2.082.517-2.082s0-1.003-.36-1.79h1.476V8.326h-5.744V7h-2.764v1.325h-5.743v2.42h1.475c-.36.786-.36 1.79-.36 1.79h.008zm9.174.966s-.307.54-1.041.771c-.367.113-1.461.143-2.12.143s-1.67-.023-2.029-.143c-.734-.232-1.041-.77-1.041-.77-.24-.375-.24-.967-.24-.967s0-.599.24-.973c0 0 .307-.54 1.041-.772.367-.12 1.37-.142 2.029-.142.659 0 1.76.022 2.12.142.734.232 1.041.772 1.041.772.239.374.239.973.239.973s0 .6-.239.966zM11.59 3.835l-3.446 1.76.214.421 1.46-.747.507.995.53-.27-.507-.995 1.457-.744-.214-.42zm-2.102.138c.48.311 1.01.04 1.01.04l.785-.4-.188-.365-.605.308s-.461.259-.822-.12l1.205-.616-.217-.42-3.14 1.603.215.42 1.205-.616c.098.515-.383.736-.383.736l-.604.308.187.364.785-.401s.533-.267.56-.841h.007zM5.726 6.241l-.402.522-.435-.334-.364.47L7.13 8.906l.365-.473-1.799-1.386.402-.518-.372-.289zM4.04 7.65c-.319.161-.62.563-.62.563s-.314.39-.386.74c0 0-.165.604.39 1.05.579.425 1.12.11 1.12.11.319-.162.619-.564.619-.564s.315-.39.387-.74c0 0 .165-.604-.394-1.054-.575-.424-1.12-.11-1.12-.11l.004.005zm.958 1.171c-.045.2-.23.428-.23.428s-.176.237-.356.33c0 0-.308.188-.623-.045-.304-.247-.203-.593-.203-.593.045-.199.23-.428.23-.428s.172-.233.352-.33c0 0 .308-.188.623.045.304.248.203.593.203.593h.004zM17.019 1.56v.547h-.41V1.56h-.596v1.675h-1.42l-.022-.026V2.02h1.115v-.47h-1.678v1.81c0 .192.154.346.345.346h1.66v1.137h.597V2.58h.409v2.264h.597V1.56h-.597zm9.882 8.769l1.754-1.386s.003-.003.007-.003a.345.345 0 00.075-.459L26.98 6.26l-.368.293 1.615 2.042-1.66 1.314-.353-.447 1.25-.99-.337-.429-1.254.995-.305-.387 1.255-.99-.338-.429-1.254.991-.458-.582-.372.293 2.414 3.049.368-.293-.278-.353-.004-.007zm-2.594-5.883l-.563-.274.255-.519-.488-.24-.69 1.404.487.24.252-.514.563.278.184-.375zM23.042 5.6a.343.343 0 00-.154-.459l-2.771-1.367-.192.39 2.587 1.274-.458.935.488.24.5-1.01v-.004zm-2.475-2.72s-.113.226-.087.41c0 0 .02.262.252.484.117.113.3.21.548.334.252.124.44.207.597.233a.825.825 0 00.54-.094c.162-.098.271-.32.271-.32s.087-.176.09-.345l.263.128.207-.424-1.014-.5.112-.232-.488-.24-.116.232-1.014-.5-.21.421.263.132a.959.959 0 00-.218.281h.004zm1.54.97s-.102.067-.252.044c-.075-.011-.27-.105-.387-.161-.116-.057-.293-.147-.345-.2-.11-.104-.117-.225-.117-.225-.011-.086.041-.191.041-.191s.053-.105.128-.15c0 0 .101-.068.252-.045.075.01.255.094.371.154.117.056.308.157.365.21a.375.375 0 01.116.225c.011.087-.041.192-.041.192s-.053.105-.128.15l-.004-.004zM2.751 18.128l-.109-.95-.968-.237-.038-.323 2.211.6c.143.038.308.091.342-.097h.015l.068.594-1.84 1.006c-.207.112-.406.203-.503.431l-.064-.567.886-.461v.004zm1.172-.62l-.992-.263.087.74.905-.477zm.195 1.952c.166-.049.436-.113.447-.32h.015l.218.688h-.015c-.124-.154-.38-.05-.544 0l-2.05.642c-.383.12-.68-.053-.856-.5v-.018c.364.221.574.199.964.075l1.825-.575-.004.008zm.946 4.145c-.713.293-1.475-.082-1.764-.78-.286-.695-.03-1.484.687-1.78.664-.274 1.46.071 1.746.814.308.736-.038 1.483-.669 1.746zm-.882-2.174c-.492.203-.848.759-.623 1.307.221.533.747.71 1.269.496.51-.21.87-.744.642-1.296-.222-.544-.759-.724-1.288-.507zm2.098 5.057l.177-.176c-.274.037-.555-.117-.743-.305-.177-.176-.312-.42-.3-.672.015-.296.198-.469.39-.664l.713-.717c.12-.12.334-.297.263-.492l.398.394-.387.376-.713.717c-.357.356-.372.672-.094.95.15.15.364.24.578.202.14-.022.203-.09.3-.187l.804-.808c.12-.12.33-.3.263-.499l.398.398-.387.376-1.381 1.385-.274-.27-.004-.008zm4.852 2.922l.09-.222c-.236.14-.56.105-.803.004-.233-.098-.447-.27-.533-.507-.102-.281 0-.514.105-.762l.386-.935c.064-.158.196-.402.053-.56l.514.215-.214.492-.386.934c-.192.466-.087.763.274.913a.666.666 0 00.612-.034c.12-.075.154-.165.206-.29l.436-1.054c.064-.158.191-.406.052-.563l.519.218-.214.495-.744 1.798-.357-.146.004.004zm4.408-1.168l-.244 2.11c-.26-.12-.36-.259-.5-.492l-1.1-1.787-.225 1.938-.27-.03.229-1.983c.026-.21.041-.36-.139-.492v-.015l.548.064c.008.053.023.071.045.105l.045.083 1.175 1.896.166-1.427c.022-.21.045-.375-.14-.51l.47.052-.06.488zm1.258 1.995l-.098-1.96c-.007-.173.004-.45-.191-.518l.552-.027.026.522.098 1.96-.383.019-.004.004zm11.379-6.76l-1.69-.994c-.15-.09-.375-.252-.536-.124l.282-.477.45.266 1.69.995-.196.334zm-8.624 4.479c.038-.285.09-.616-.157-.653v-.015l.544-.132-.371 2.771c-.297-.109-.39-.12-.564-.383l-.916-1.378c-.112-.172-.221-.372-.413-.458v-.015l.533-.128.008.045c.019.083.131.245.18.32l.965 1.464.188-1.442.003.004zm1.987.674l-.627-1.285c-.076-.154-.177-.413-.38-.394l-.007-.012 1.089-.533c.056-.026.12-.045.154-.093h.01l.196.394h-.011c-.165-.064-.312-.012-.47.067-.12.057-.236.12-.334.192l.308.634.406-.199a.35.35 0 00.139-.093h.01l.177.356h-.007c-.102-.067-.244.008-.35.056l-.25.124.393.808.455-.173a.937.937 0 00.53-.507l.01-.008.064.522-1.269.62-.229-.48-.007.003zm2.76-1.015l-1.202-1.54c-.11-.138-.256-.371-.45-.307l-.008-.012.71-.555c.401-.316.78-.274.994 0 .207.263.135.65-.064.897l.853.203c.248.056.555.064.807.041l-.274.214c-.162.124-.285.162-.462.12l-.717-.165-.6-.206c.21-.222.4-.549.183-.83-.169-.214-.45-.195-.646-.03a2.072 2.072 0 00-.184.18l1.37 1.753-.303.237h-.008zm1.572-4.269a.848.848 0 00-.56.308c-.138.166-.247.428-.044.597.401.33 1.224-.683 1.764-.236.316.255.338.826-.037 1.28a1.92 1.92 0 01-.518.45l-.436-.213c.293-.053.582-.214.77-.44.139-.169.244-.503.038-.668-.459-.375-1.202.698-1.825.188-.368-.304-.2-.796.097-1.153a1.94 1.94 0 01.42-.383l.331.274v-.004zm4.22-4.96l-1.074-.154-1.092.477c-.18.075-.312.131-.44.296l.083-.56 1.183-.506-.63-.567c-.084-.079-.253-.188-.384.004h-.015l.094-.657 1.258 1.122 1.073.154-.056.383v.008zm-3.465 2.874l.349.27v-.011c-.057-.147-.03-.323.026-.473l.124-.312 2.069.815.139-.36-2.07-.816.125-.315c.045-.116.12-.251.259-.248v-.01l-.35-.26-.675 1.72h.004z" fill="#fff"/><path d="M15.994 0C7.164 0 0 7.164 0 15.99 0 24.819 7.164 32 15.994 32c8.831 0 16.01-7.164 16.01-16.01C32.004 7.146 24.836 0 15.994 0zm0 31.527c-8.568 0-15.52-6.954-15.52-15.536C.473 7.408 7.425.473 15.993.473s15.533 6.953 15.533 15.518c0 8.564-6.954 15.536-15.533 15.536z" fill="#fff"/><path d="M3.856 13.358a.432.432 0 11-.864 0 .432.432 0 01.864 0zm25.22 0a.432.432 0 11-.864 0 .432.432 0 01.864 0z" fill="#fff"/><path fill-rule="evenodd" clip-rule="evenodd" d="M26.398 15.995A10.4 10.4 0 0115.994 26.4c-5.748 0-10.392-4.656-10.392-10.404A10.386 10.386 0 0115.994 5.603c5.74 0 10.404 4.655 10.404 10.392zm-12.25-8.877l-4.363 6.398s-1.06 1.318-.184 3.041l2.275 3.507s.39.69 1.19.69h1.708s-.27-.105-.439-.349l-2.538-3.904s-.413-.665-.383-1.337c0 0 .026-.59.372-1.149l2.377-3.567 2.815 4.363s.32.477-.018.86c0 0-.207.214-.721.049l.983 1.517s.177.244.47.244c0 0 .206 0 .401-.233l.729-1.183s.533-.702-.026-1.794l-4.648-7.153zm7.906 9.8l-2.162 3.258h-.008c-.383.594-.972.578-.972.578H16.55c-.526 0-.886-.555-.886-.555l-2.628-4.036c-.56-1.097-.027-1.799-.027-1.799l.733-1.179c.195-.232.401-.232.401-.232.29 0 .466.244.466.244l.984 1.516c-.515-.169-.721.045-.721.045-.338.383-.019.86-.019.86l1.952 2.955s.207.33.488.36h.857s.247-.007.484-.311l1.415-2.208c.35-.56.376-1.149.376-1.149.079-.706-.47-1.54-.47-1.54L15.86 7.49a1.074 1.074 0 00-.44-.35h1.71c.799 0 1.19.695 1.19.695l3.92 6.041c.874 1.724-.185 3.041-.185 3.041zm-8.707 7.648h-.349V22.32l-.394.267v-.334c.086-.038.338-.23.443-.316h.3v2.628zm1.581.06c.71 0 .71-.675.71-1.362h.004v-.032c0-.694 0-1.335-.71-1.335-.35 0-.702.218-.702.807 0 .721.402.83.604.83.203 0 .368-.064.45-.248h.008c0 .676-.022 1.048-.36 1.048-.225 0-.3-.2-.3-.394h-.35c-.01.416.252.687.646.687zm0-1.385c-.304 0-.353-.281-.353-.544 0-.237.053-.544.353-.544s.353.307.353.544c0 .259-.049.544-.353.544zm1.114-1.304h1.363v.304l-.702 2.328h-.394l.736-2.328h-1.003v-.304zm2.899.662c0 .337-.222.461-.537.435l-.004.004v.308c.41 0 .567.09.567.514 0 .278-.086.473-.401.473-.316 0-.357-.229-.36-.488h-.35v.03c-.004.19-.014.751.68.751.506 0 .78-.248.78-.758 0-.398-.131-.616-.544-.672v-.008l.022-.006c.16-.043.496-.133.496-.606 0-.462-.266-.683-.713-.683-.492 0-.706.274-.68.72h.35c-.004-.21.04-.427.33-.427.259 0 .364.172.364.413z" fill="#fff"/></svg>