<svg width="223" height="24" fill="none" xmlns="http://www.w3.org/2000/svg"><path opacity=".8" d="M159.222 8.57h-1.423V7.147h1.423V8.57zm-9.05 1.631h-1.423v1.423h1.423v-1.423zm0 3.054h-1.423v1.423h1.423v-1.423zm-2.894-6.124h-1.423v1.423h1.423V7.131zm11.944 3.054h-1.423v1.423h1.423v-1.423zm0 3.054h-1.423v1.423h1.423V13.24zm-3.07-3.054h-1.423v1.423h1.423v-1.423zm0 3.054h-1.423v1.423h1.423V13.24zm-8.874-3.054h-1.423v1.423h1.423v-1.423zm8.874-3.054h-1.423v1.423h1.423V7.131zm-5.98 0h-1.423v1.423h1.423V7.131zm3.118 6.124h-1.423v1.423h1.423v-1.423zm0-6.124h-1.423v1.423h1.423V7.131zm0 3.054h-1.423v1.423h1.423v-1.423zm39.893 6.476h1.631V5.244h-1.631v11.417zm-45.905-3.406h-1.423v1.423h1.423v-1.423zm17.332-2.494c0-3.262 2.639-5.9 5.9-5.9 3.262 0 5.9 2.638 5.9 5.9v5.724h-1.631v-1.679a5.815 5.815 0 01-4.253 1.839 5.896 5.896 0 01-5.9-5.9l-.016.016zm1.791 0c0 2.27 1.839 4.11 4.109 4.11a4.108 4.108 0 004.11-4.11 4.11 4.11 0 00-4.11-4.11 4.108 4.108 0 00-4.109 4.11zm26.798-8.187h1.631V0h-1.631v2.574zm29.245 8.203V16.5h-1.631v-1.679c-1.071 1.12-2.574 1.839-4.253 1.839a5.896 5.896 0 01-5.9-5.9c0-3.262 2.638-5.9 5.9-5.9 3.261 0 5.9 2.638 5.9 5.9l-.016.016zm-1.791 0c0-2.27-1.839-4.11-4.109-4.11a4.108 4.108 0 00-4.11 4.11 4.11 4.11 0 004.11 4.11 4.108 4.108 0 004.109-4.11zm-57.034-9.114s-1.359 2.27-3.374 2.27c-1.135 0-1.311-.431-2.622-.431-.656 0-1.135.16-1.455.32v1.407h4.989V16.66h-9.994v3.901l-3.517-3.901H144V5.213h11.272V0h.896v.592c.416-.112 1.039-.24 1.535-.24.767 0 1.647.256 2.446.687.8.432 1.935.944 3.486.624h-.016zm-18.724 4.445v9.657h3.15l.272.288 1.951 2.175V15.78h.895l9.098-.016V6.108h-15.366zm60.84 9.737c.895.64 1.599 1.68 1.599 3.278 0 3.742-3.278 4.573-4.541 4.573v-1.79c.112 0 2.75-.033 2.75-2.783 0-2.302-2.414-2.446-2.686-2.462h-.064a5.896 5.896 0 01-5.9-5.9c0-3.262 2.638-5.9 5.9-5.9 3.262 0 5.9 2.638 5.9 5.9 0 2.174-1.199 4.061-2.958 5.084zm1.167-5.084c0-2.27-1.839-4.11-4.109-4.11a4.107 4.107 0 00-4.109 4.11 4.108 4.108 0 108.218 0zm-27.853 0c0-3.262 2.638-5.9 5.9-5.9 1.679 0 3.182.703 4.253 1.839V0h1.631v10.777c0 3.262-2.638 5.9-5.9 5.9a5.896 5.896 0 01-5.9-5.9l.016-.016zm1.79 0a4.11 4.11 0 004.11 4.11 4.108 4.108 0 004.109-4.11c0-2.27-1.839-4.11-4.109-4.11a4.108 4.108 0 00-4.11 4.11zm-19.043 11.576v1.183c0 .288-.112.384-.432.384h-2.174c-.32 0-.432-.096-.432-.384v-1.183c0-.16.16-.24.304-.24s.32.08.32.24v.304h1.759v-.304c0-.16.159-.24.319-.24s.32.08.32.24h.016zm-.623.768h-1.759v.207s.032.112.112.112h1.535c.08 0 .112-.032.112-.111v-.208zm-4.414-3.502c-.143 0-.303.08-.303.224v1.167h-.4v-1.12c0-.16-.144-.24-.304-.24-.144 0-.288.08-.288.24v3.343c0 .16.144.223.288.223.16 0 .304-.08.304-.224V21.49h.4v1.918c0 .16.144.24.303.24.16 0 .304-.08.304-.24v-3.581c0-.16-.144-.224-.304-.224zm2.559 2.222c-.8 0-1.199-.431-1.199-1.023 0-.591.415-1.023 1.199-1.023.783 0 1.199.431 1.199 1.023 0 .592-.4 1.023-1.199 1.023zm0-.48c.432 0 .591-.24.591-.543 0-.304-.159-.543-.591-.543-.432 0-.592.24-.592.543 0 .304.16.544.592.544zm7.099.816c.16 0 .32-.08.32-.256V19.86c0-.176-.16-.256-.32-.256s-.32.08-.32.256v.767h-.591c-.16 0-.224.112-.224.256 0 .144.064.24.224.24h.591v.767c0 .176.16.256.32.256v.016zm-12.472-.096c-.08 0-.112-.032-.112-.112v-1.407s.032-.112.112-.112h.928c.16 0 .224-.111.224-.256 0-.143-.064-.255-.224-.255h-1.263c-.32 0-.432.096-.432.384v1.854c0 .288.112.384.432.384.783 0 1.263-.032 1.487-.064.144-.016.191-.144.175-.288-.016-.144-.111-.24-.255-.224-.32.048-.736.064-1.072.064v.032zm27.15-.16c.16 0 .32-.08.32-.255v-1.807c0-.176-.16-.256-.32-.256s-.32.08-.32.256v.575h-.543c-.16 0-.224.112-.224.256 0 .144.064.256.224.256h.543v.704c0 .175.16.255.32.255v.016zm-16.789-.64c.032.08.096.16.336.353.208.144.384.271.48.335.16.112.32.016.384-.08.096-.111.096-.255-.048-.351-.128-.096-.336-.224-.544-.4-.224-.16-.304-.336-.304-.624v-.16h.688c.16 0 .224-.111.224-.24 0-.127-.08-.255-.224-.255h-2.063c-.16 0-.224.112-.224.256 0 .143.064.24.224.24h.736v.175c0 .288-.08.464-.304.624-.224.16-.416.304-.64.448-.16.096-.144.255-.048.367.08.096.24.176.384.08.192-.128.368-.256.576-.4.24-.175.319-.271.351-.383l.016.016zm26.543-1.662c-.16 0-.32.08-.32.256v3.55c0 .175.16.255.32.255s.32-.08.32-.256v-3.55c0-.175-.16-.255-.32-.255zm-4.541.256v3.55c0 .175-.16.255-.32.255s-.32-.08-.32-.256v-1.902h-.735c-.064.751-.464 1.15-1.183 1.15-.8 0-1.2-.495-1.2-1.406 0-.912.4-1.407 1.2-1.407.719 0 1.103.4 1.183 1.151h.735v-1.151c0-.176.16-.256.32-.256s.32.08.32.256v.016zm-1.983 1.39c0-.59-.144-.895-.575-.895-.432 0-.576.304-.576.896 0 .591.144.895.576.895.431 0 .575-.304.575-.895zm4.013.848c-.08 0-.111-.032-.111-.112v-1.47c0-.08.031-.113.111-.113h1.264c.159 0 .223-.111.223-.255 0-.144-.064-.256-.223-.256h-1.599c-.32 0-.432.096-.432.384v1.918c0 .288.112.384.432.384 1.039 0 1.615-.048 2.03-.096.144-.016.192-.144.176-.288a.228.228 0 00-.256-.224c-.479.064-1.007.08-1.615.08v.048zm7.499-1.119v-1.12c0-.175-.159-.255-.319-.255s-.32.08-.32.256v3.55c0 .175.16.255.32.255s.319-.08.319-.256V21.49h.464c.16 0 .24-.112.24-.256 0-.144-.08-.256-.24-.256h-.464zm-1.758-1.04h-1.503c-.16 0-.224.113-.224.257 0 .143.064.24.224.24h1.167c.08 0 .112.031.112.111v.256c0 .544-.08.688-1.455 1.455-.144.08-.128.256-.048.368.08.112.24.176.384.096 1.519-.864 1.742-1.135 1.742-1.919v-.511c0-.288-.112-.384-.431-.384l.032.032zm-32.603-.32c-.16 0-.319.08-.319.257v1.823c0 .175.159.24.319.24s.32-.08.32-.24v-1.823c0-.176-.16-.256-.32-.256zm10.281 3.167c.16 0 .224.112.224.24s-.064.256-.224.256h-3.789c-.16 0-.224-.112-.224-.256 0-.144.064-.24.224-.24h1.567v-.736h-.831c-.32 0-.432-.096-.432-.383v-1.6c0-.16.16-.255.32-.255s.319.08.319.256v.447h1.871v-.447c0-.16.16-.256.32-.256s.32.08.32.256v1.599c0 .287-.112.383-.432.383h-.831v.736h1.598zm-1.071-1.231c.08 0 .112-.032.112-.112v-.448h-1.871v.448s.032.112.112.112h1.647zm8.379 1.934s-.08-.032-.08-.064v-.111s.032-.064.08-.064h1.902c.32 0 .432-.096.432-.384v-.368c0-.288-.112-.384-.432-.384h-2.414c-.144 0-.208.112-.208.224 0 .128.064.24.208.24h2.143s.079.016.079.064v.112s-.031.064-.079.064h-1.903c-.32 0-.432.096-.432.384v.383c0 .288.112.384.432.384h2.494c.144 0 .208-.112.208-.224s-.064-.224-.208-.224h-2.222v-.032zm-12.328-.383c0 .607-.576.895-1.519.895-.944 0-1.519-.304-1.519-.895 0-.592.575-.896 1.519-.896.943 0 1.519.304 1.519.896zm-.64 0c0-.256-.24-.432-.879-.432-.64 0-.88.176-.88.432 0 .255.24.431.88.431.639 0 .879-.176.879-.431zm10.553-.304c.16 0 .224.112.224.24s-.064.256-.224.256h-3.789c-.16 0-.224-.113-.224-.256 0-.144.064-.24.224-.24h1.567v-.752h-1.152c-.143 0-.223-.112-.223-.24s.064-.24.223-.24h.432v-1.15h-.4c-.143 0-.223-.113-.223-.24 0-.128.064-.24.223-.24h2.911c.143 0 .223.112.223.24s-.08.24-.223.24h-.4v1.15h.432c.143 0 .223.113.223.24 0 .128-.064.24-.223.24h-1.152v.752h1.567-.016zm-1.455-1.247v-1.152h-.863v1.152h.863zm5.165-.048c0-.128-.112-.224-.256-.208-.48.064-1.007.08-1.583.08-.08 0-.112-.032-.112-.112v-.224h1.151c.144 0 .224-.112.224-.24s-.064-.24-.224-.24h-1.151v-.208s.032-.111.112-.111h1.247c.144 0 .208-.112.208-.24s-.064-.24-.208-.24h-1.567c-.32 0-.432.096-.432.384v1.295c0 .288.112.383.432.383.992 0 1.567-.047 1.983-.095.144-.017.192-.144.176-.272v.048z" fill="#fff"/><path opacity=".6" d="M12.438 5.375v13.89h-1.172v-7.28H9.219v6.562H8.094V5.687h1.125v5.282h2.047V5.375h1.171zM1.078 15.828v-8.75h5.203v1.016H2.297v6.687c1.914-.008 3.234-.078 4.781-.39l.11 1.03c-1.672.345-3.086.4-5.22.407h-.89zM25.54 5.375v7.453h-1.218V5.375h1.218zM14.4 9.25c-.008-1.898 1.531-3.203 3.64-3.188 2.11-.015 3.633 1.29 3.641 3.188-.008 1.89-1.531 3.195-3.64 3.188-2.11.007-3.65-1.297-3.641-3.188zm1.203 0c-.016 1.266 1.008 2.164 2.437 2.172 1.414-.008 2.438-.906 2.438-2.172 0-1.273-1.024-2.164-2.438-2.156-1.43-.008-2.453.883-2.437 2.156zm.937 9.828v-5.547h1.22v1.688h6.562V13.53h1.218v5.547h-9zm1.22-1h6.562v-1.875h-6.563v1.875zM39.093 5.375v8.281H37.86v-3.64h-2.797V9h2.797V5.375h1.234zM27.64 12.547c2.063-.742 3.532-2.625 3.532-4.61v-.515h-3.141V6.39h7.484v1.03h-3.11v.5c0 1.813 1.392 3.54 3.423 4.235l-.64.985c-1.556-.563-2.767-1.735-3.368-3.164-.594 1.625-1.883 2.921-3.54 3.554l-.64-.984zm2.188 4.125c-.008-1.633 1.765-2.586 4.656-2.578 2.883-.008 4.656.945 4.656 2.578 0 1.64-1.773 2.578-4.656 2.594-2.89-.016-4.664-.953-4.656-2.594zm1.218 0c-.007 1.008 1.305 1.617 3.438 1.61 2.125.007 3.438-.602 3.438-1.61 0-1.016-1.313-1.625-3.438-1.625-2.133 0-3.445.61-3.438 1.625zm22.759-.203v1.015h-12.72V16.47h5.72v-3h-4.22V6.36h1.235v2.516h7.219V6.359h1.203v7.11H48.01v3h5.797zm-9.985-4h7.219V9.875H43.82v2.594zM67.314 16.5v1.047H54.595V16.5h5.703v-3.203h-4.547v-.985h2.172V7.75H55.72V6.734h10.375V7.75h-2.203v4.563h2.172v.984H61.5V16.5h5.813zm-8.172-4.188h3.547V7.75h-3.547v4.563zm15.977-6.078V7.25H70.04v1.484h4.703v.954H70.04v1.656c2.562-.008 4.03-.063 5.828-.36l.11 1c-1.884.313-3.423.344-6.141.344h-1.016V6.234h6.297zM70.603 14.5v-.984h9v3.218h-7.75v1.391h8.281v.984h-9.5v-3.312h7.75V14.5h-7.78zm5.11-4.922v-1h2.671V5.375h1.22v7.516h-1.22V9.578h-2.671zm9.633-3.125c1.89.008 3.257 1.633 3.445 4.234h3.117V5.375h1.219v13.922h-1.219v-7.594h-3.101c-.133 2.727-1.524 4.43-3.461 4.422-2.055.008-3.493-1.867-3.485-4.828-.008-2.953 1.43-4.836 3.485-4.844zm-2.313 4.844c.008 2.258.945 3.742 2.313 3.734 1.359.008 2.312-1.476 2.312-3.734s-.953-3.742-2.312-3.75c-1.368.008-2.305 1.492-2.313 3.75zm23.54-5.922v13.922h-1.235V5.375h1.235zM96.026 15.844v-9.14h6.609v1.03H97.26v7.047c2.703 0 4.477-.078 6.563-.453l.125 1.031c-2.157.383-3.985.477-6.797.485h-1.125zm23.352-10.469v5.656h2.25v1.031h-2.25v7.204h-1.219V5.375h1.219zm-10.657 10.281c3.586-1.781 5.539-4.46 5.821-7.75h-5.18V6.875h6.422c-.008 3.93-1.852 7.516-6.375 9.75l-.688-.969z" fill="#fff"/></svg>