<svg width="176" height="24" fill="none" xmlns="http://www.w3.org/2000/svg"><path d="M119.777 6.865h.562v11.93h-.562V6.864zm-71.982.168h-2.263v12.655h2.264v-8.729H50.3V9.151h-2.506V7.033zm31.2 2.118h-1.55V7.033h-2.263v6.443h-5.398l-.084-.107V8.814h4.24V7h-6.38v6.964c0 .73.59 1.326 1.309 1.326h6.313v4.37h2.263v-8.7h1.55v8.7h2.27V7.032h-2.27V9.15zM97.115 7h-2.079v6.015h2.078v-2.202h2.376V9.218h-2.376V7zM51.03 15.368h6.223v4.291h2.263v-4.29h6.223v-1.815H51.03v1.814zm7.357-5.02c1.079 1.914 3.348 1.903 3.348 1.903h3.353v-1.578h-2.572s-2.023.079-2.579-1.854h5.15V7.005H51.683V8.82h5.15c-.556 1.927-2.578 1.854-2.578 1.854h-2.577v1.578h3.358s2.27.006 3.348-1.904h.005zm54.627-1.99v-.033c0-.69-.523-1.252-1.191-1.308v-.012h-10.772V8.82h9.89v8.139h-2.168V10.82h-2.072v6.144h-1.871V10.82h-2.072v6.144h-2.82v1.809h14.783v-1.808h-1.707V8.358zm-70.87-1.044c-1.224-.6-3.134-.556-3.134-.556s-1.91-.04-3.134.556c0 0-2.201.916-2.263 3.662.062 2.752 2.263 3.662 2.263 3.662 1.219.601 3.134.562 3.134.562s1.91.04 3.134-.562c0 0 2.202-.915 2.264-3.662-.062-2.752-2.264-3.662-2.264-3.662zm-1.314 5.667c-.713.326-1.82.31-1.82.31s-1.112.016-1.825-.31c0 0-1.28-.5-1.314-2.005.033-1.5 1.314-2.005 1.314-2.005.708-.326 1.825-.309 1.825-.309s1.107-.017 1.82.31c0 0 1.28.505 1.314 2.004-.033 1.505-1.314 2.005-1.314 2.005zm56.289 2.354c0-.725-.579-1.315-1.297-1.32H84.078v1.662h10.964v4.005h2.078v-4.347zM84.118 10.15s0 .966.387 1.561c0 0 .5.87 1.68 1.241.59.186 1.37.22 2.437.22 1.067 0 1.842-.04 2.432-.22 1.18-.37 1.685-1.241 1.685-1.241.388-.595.388-1.561.388-1.561s0-.753-.27-1.343h1.106V6.994h-4.307V6h-2.073v.994h-4.308v1.814h1.107c-.27.59-.27 1.343-.27 1.343h.006zm6.88.724s-.23.405-.78.579c-.276.084-1.096.106-1.59.106-.495 0-1.253-.017-1.522-.106a1.429 1.429 0 01-.781-.579c-.18-.28-.18-.724-.18-.724s0-.45.18-.73c0 0 .23-.405.78-.579.276-.09 1.028-.107 1.523-.107.494 0 1.32.017 1.59.107.55.174.78.578.78.578.18.281.18.73.18.73s0 .45-.18.725zm36.724 2.446h2.43v1.53h7.83v-1.53h2.43v6.804h-11.394c-.396 0-.714-.12-.954-.36-.228-.24-.342-.552-.342-.936V13.32zm2.556-8.892a8.228 8.228 0 011.332 0 7.68 7.68 0 011.854.378c.564.18 1.044.432 1.44.756.396.324.702.714.918 1.17.216.456.324.978.324 1.566 0 .588-.108 1.116-.324 1.584a3.346 3.346 0 01-.918 1.17 4.58 4.58 0 01-1.44.774 7.16 7.16 0 01-1.854.36 8.228 8.228 0 01-1.332 0 7.404 7.404 0 01-1.872-.36 4.616 4.616 0 01-1.422-.774 3.346 3.346 0 01-.918-1.17 3.737 3.737 0 01-.324-1.584c0-.588.108-1.11.324-1.566.216-.456.522-.846.918-1.17.396-.324.87-.576 1.422-.756a7.957 7.957 0 011.872-.378zm10.134 8.172h-2.484V4.248h2.484V12.6zm-10.026-2.376c.372.036.75.036 1.134 0 .624-.06 1.146-.246 1.566-.558.432-.312.648-.768.648-1.368 0-.588-.216-1.038-.648-1.35-.432-.312-.96-.498-1.584-.558a5.78 5.78 0 00-1.116 0c-.624.06-1.152.246-1.584.558-.432.312-.648.762-.648 1.35 0 .3.054.564.162.792.12.216.282.402.486.558.204.156.438.282.702.378.276.096.57.162.882.198zm7.596 7.938V16.74h-7.83v1.422h7.83zm19.192-13.914v3.924h2.538v2.052h-2.538v3.528h-2.484V4.248h2.484zm0 15.984h-2.43V16.47h-10.206v-1.998h11.124c.456 0 .822.138 1.098.414.276.276.414.642.414 1.098v4.248zm-10.206-6.966c-1.272-.096-2.238-.462-2.898-1.098-.66-.636-.99-1.434-.99-2.394 0-.456.078-.864.234-1.224.168-.372.36-.66.576-.864h-1.836V5.688h4.392V3.816h2.538v1.872h4.392v1.998h-1.818c.216.204.396.492.54.864.156.36.234.768.234 1.224 0 .948-.324 1.746-.972 2.394-.648.648-1.59 1.014-2.826 1.098-.528.036-1.05.036-1.566 0zm-1.494-3.744c0 .516.156.93.468 1.242.312.3.792.48 1.44.54.216.012.438.012.666 0 .648-.06 1.128-.24 1.44-.54.312-.312.468-.726.468-1.242 0-1.092-.636-1.698-1.908-1.818a6.164 6.164 0 00-.666 0c-1.272.12-1.908.726-1.908 1.818zM161.12 6.3h3.654V4.176h2.556V6.3h3.438v1.98h-3.456v1.98c0 1.44.282 2.466.846 3.078.564.6 1.374.9 2.43.9h.684v2.034h-1.08c-1.116 0-2.01-.192-2.682-.576a3.546 3.546 0 01-1.458-1.674c-.312.72-.846 1.29-1.602 1.71-.744.42-1.662.63-2.754.63h-1.08v-2.034h.666c.528 0 1.008-.078 1.44-.234a2.74 2.74 0 001.098-.72c.312-.324.552-.744.72-1.26.168-.516.252-1.134.252-1.854V8.28h-3.672V6.3zm8.55 3.6h3.114V4.248h2.484v15.768h-2.484V11.88h-3.114V9.9z" fill="#fff"/><path d="M8.374 17.49h-.225v-1.44l-.255.17v-.215c.055-.025.215-.145.285-.2h.19v1.685h.005zm1.47-.84c0 .44 0 .87-.455.87-.255 0-.42-.17-.415-.44h.225c0 .125.05.255.19.255.215 0 .23-.24.23-.67-.055.115-.16.16-.29.16-.13 0-.385-.07-.385-.53 0-.38.225-.515.45-.515.46 0 .455.425.455.875l-.005-.005zm-.68-.365c0 .17.03.35.225.35s.225-.18.225-.35c0-.155-.035-.35-.225-.35s-.225.195-.225.35zm1.81-.485v.195l-.45 1.49h-.255l.47-1.49h-.64V15.8h.875zm.645.705c.2.02.345-.065.345-.28 0-.155-.07-.265-.235-.265-.185 0-.215.14-.215.275h-.225c-.015-.285.12-.46.435-.46.285 0 .455.145.455.435 0 .32-.235.365-.33.39.265.04.35.185.35.435 0 .33-.175.485-.5.485-.47 0-.435-.405-.435-.5h.225c0 .17.03.315.23.315s.255-.125.255-.305c0-.27-.1-.33-.36-.33v-.195h.005z" fill="#111"/><path d="M8.693 2.876l-2.585 1.32.16.316 1.096-.56.38.746.397-.203-.38-.746 1.093-.558-.161-.315zm-1.577.104c.36.233.757.03.757.03l.589-.3-.14-.274-.454.231s-.347.194-.617-.09l.904-.462-.163-.315-2.354 1.202.16.315.904-.461c.073.385-.287.552-.287.552l-.454.23.141.274.589-.302s.4-.2.42-.63h.005zm-2.821 1.7l-.302.392-.326-.25-.273.352L5.348 6.68l.273-.355-1.349-1.039.301-.388-.278-.217zM3.03 5.737c-.24.122-.464.423-.464.423s-.237.293-.29.555c0 0-.124.453.292.788.434.318.84.082.84.082.239-.121.464-.423.464-.423s.237-.293.29-.554c0 0 .124-.454-.295-.792-.431-.318-.84-.081-.84-.081l.003.002zm.718.88c-.033.148-.171.32-.171.32s-.133.177-.268.248c0 0-.23.14-.467-.034-.228-.186-.152-.445-.152-.445.033-.15.171-.32.171-.32s.13-.175.265-.249c0 0 .23-.14.467.034.229.186.152.445.152.445h.003zm9.016-5.447v.41h-.307v-.41h-.447v1.255h-1.065l-.017-.02v-.89h.837v-.352h-1.26v1.358a.26.26 0 00.26.259h1.245v.853h.447V1.935h.307v1.698h.448V1.169h-.448zm7.412 6.576l1.315-1.039.006-.002a.26.26 0 00.056-.344l-1.318-1.667-.276.22 1.211 1.531-1.245.986-.264-.335.937-.743-.253-.321-.94.746-.229-.29.94-.744-.253-.32-.94.743-.344-.437-.278.22 1.81 2.286.276-.22-.208-.264-.003-.006zM18.23 3.334l-.422-.205.191-.389-.366-.18-.518 1.053.366.18.189-.385.422.208.138-.282zm-.949.866a.257.257 0 00-.115-.344L15.087 2.83l-.143.293 1.94.954-.343.701.366.18.374-.757v-.003zm-1.856-2.04s-.084.17-.065.307c0 0 .014.197.19.363.086.085.224.158.41.251.189.093.33.155.448.175a.623.623 0 00.405-.07c.122-.074.203-.24.203-.24s.065-.132.068-.26l.197.097.155-.319-.76-.374.084-.175-.366-.18-.087.175-.76-.375-.158.316.197.098a.711.711 0 00-.164.211h.003zm1.155.727s-.076.05-.189.034a1.697 1.697 0 01-.29-.121 1.376 1.376 0 01-.26-.15.282.282 0 01-.086-.169c-.009-.064.03-.143.03-.143s.04-.08.096-.113c0 0 .076-.05.189-.034.056.009.192.07.279.116.087.042.23.118.273.157.082.08.087.17.087.17.009.064-.03.143-.03.143s-.04.079-.096.113l-.003-.003zM2.063 13.596l-.081-.713-.727-.177-.028-.242 1.659.45c.107.029.23.068.256-.073h.011l.05.445-1.379.755c-.155.084-.304.152-.377.323l-.048-.425.664-.346v.003zm.879-.465l-.743-.197.064.555.679-.358zm.147 1.464c.124-.037.327-.085.335-.24h.011l.164.516h-.012c-.093-.116-.284-.037-.408 0l-1.538.481c-.287.09-.51-.04-.642-.374v-.014c.274.166.431.149.724.056l1.369-.43-.003.005zm.709 3.109c-.535.22-1.106-.062-1.323-.586-.214-.52-.023-1.112.515-1.335.499-.205 1.095.054 1.31.611.23.552-.029 1.113-.502 1.31zm-.661-1.63c-.37.151-.637.568-.468.98.166.4.56.532.952.371.383-.158.653-.558.481-.972-.166-.408-.568-.543-.965-.38zm1.573 3.792l.133-.132c-.206.028-.417-.087-.558-.228-.132-.133-.233-.316-.225-.504.011-.223.15-.352.293-.499l.535-.538c.09-.09.25-.222.197-.368l.299.295-.29.282-.535.538c-.268.267-.28.504-.07.712.112.113.272.18.433.152.104-.017.152-.067.225-.14l.603-.606c.09-.09.248-.225.197-.375l.298.299-.29.281-1.036 1.04-.205-.203-.003-.006zm3.64 2.191l.067-.166c-.178.104-.42.079-.603.003-.174-.073-.335-.203-.4-.38-.076-.212 0-.386.08-.572l.29-.701c.047-.118.146-.301.039-.42l.385.16-.16.37-.29.7c-.144.35-.065.573.205.685a.5.5 0 00.46-.025c.09-.056.115-.124.154-.217l.327-.791c.048-.119.143-.304.04-.423l.388.164-.16.371-.558 1.35-.268-.11.003.002zm3.305-.876l-.183 1.583c-.194-.09-.27-.194-.375-.369l-.825-1.34-.169 1.453-.202-.023.171-1.487c.02-.157.031-.27-.104-.369v-.01l.411.047c.006.04.017.054.034.079l.034.062.881 1.422.124-1.07c.017-.158.034-.282-.104-.383l.352.04-.045.365zm.943 1.496l-.073-1.47c-.005-.13.003-.338-.143-.388l.414-.02.093 1.861-.288.014-.003.003zm8.535-5.069l-1.267-.746c-.113-.068-.282-.189-.403-.093l.211-.358.338.2 1.267.746-.146.25zm-6.468 3.359c.028-.214.068-.462-.118-.49v-.011l.408-.099-.278 2.078c-.223-.081-.293-.09-.423-.287l-.687-1.033c-.085-.13-.166-.28-.31-.344v-.011l.4-.096.006.034c.014.062.098.183.135.24l.724 1.098.14-1.082.003.003zm1.49.505l-.47-.963c-.057-.116-.133-.31-.285-.296l-.006-.008.817-.4c.042-.02.09-.034.116-.07h.008l.146.295h-.008c-.124-.048-.234-.008-.352.05-.09.043-.177.09-.25.144l.23.476.304-.149a.261.261 0 00.104-.07h.009l.132.267h-.005c-.076-.05-.183.006-.262.042l-.189.093.296.606.34-.13a.703.703 0 00.398-.38l.008-.006.048.392-.952.464-.172-.36-.005.003zm2.069-.761l-.9-1.154c-.082-.104-.192-.279-.339-.231l-.005-.009.532-.416c.301-.237.586-.206.746 0 .155.197.102.487-.048.673l.64.152c.185.042.416.048.605.03l-.206.161c-.12.093-.214.121-.346.09l-.538-.123-.45-.155c.157-.166.3-.412.138-.623-.127-.16-.338-.146-.485-.022-.05.042-.093.087-.138.135l1.028 1.315-.228.177h-.006zm1.18-3.201a.636.636 0 00-.42.231c-.104.124-.185.321-.033.448.301.248.918-.513 1.323-.178.237.192.254.62-.028.96-.11.136-.24.251-.388.338l-.327-.16a1 1 0 00.577-.33c.104-.126.183-.377.028-.5-.343-.282-.9.523-1.368.14-.276-.228-.15-.597.073-.864.09-.11.197-.209.315-.288l.248.206v-.003zm3.166-3.72l-.806-.116-.82.357c-.135.057-.233.1-.329.223l.062-.42.887-.38-.473-.425c-.062-.06-.189-.14-.287.003h-.012l.07-.493.944.842.805.115-.042.288v.005zm-2.6 2.155l.262.203v-.009a.515.515 0 01.02-.355l.092-.233 1.552.61.104-.27-1.551-.61.092-.237c.034-.088.09-.189.195-.186v-.008l-.262-.195-.507 1.29h.003z" fill="#fff"/><path d="M11.996 0C5.373 0 0 5.373 0 11.993S5.373 24 11.996 24s12.007-5.373 12.007-12.007C24.003 5.359 18.627 0 11.996 0zm0 23.645C5.57 23.645.355 18.43.355 11.993.355 5.556 5.57.355 11.995.355c6.427 0 11.65 5.215 11.65 11.638s-5.215 11.652-11.65 11.652z" fill="#fff"/><path d="M2.892 10.018a.324.324 0 11-.648 0 .324.324 0 01.648 0zm18.915 0a.324.324 0 11-.648 0 .324.324 0 01.648 0z" fill="#fff"/><path fill-rule="evenodd" clip-rule="evenodd" d="M19.799 11.996a7.8 7.8 0 01-7.803 7.803A7.793 7.793 0 014.2 11.996a7.79 7.79 0 017.795-7.794c4.305 0 7.803 3.492 7.803 7.794zM10.61 5.34l-3.272 4.798s-.795.989-.138 2.281l1.706 2.63s.293.518.893.518h1.28s-.202-.078-.329-.261l-1.903-2.929s-.31-.498-.287-1.002c0 0 .02-.443.278-.862l1.783-2.675 2.112 3.272s.24.357-.014.645c0 0-.155.16-.54.036l.737 1.138s.132.183.352.183c0 0 .155 0 .301-.175l.546-.887s.4-.526-.02-1.346L10.612 5.34zm5.93 7.35l-1.622 2.444h-.006c-.287.445-.73.434-.73.434h-1.77c-.395 0-.665-.417-.665-.417l-1.971-3.027c-.42-.823-.02-1.35-.02-1.35l.55-.883c.146-.175.3-.175.3-.175a.47.47 0 01.35.183l.737 1.138c-.385-.127-.54.034-.54.034-.254.287-.014.644-.014.644l1.464 2.216s.155.248.366.27h.642s.186-.005.363-.233l1.062-1.656c.262-.42.281-.861.281-.861.06-.53-.351-1.155-.351-1.155l-3.073-4.677a.797.797 0 00-.33-.262h1.282c.6 0 .893.521.893.521l2.94 4.53c.656 1.293-.138 2.282-.138 2.282zm-6.53 5.735h-.262V16.74l-.296.2v-.25c.065-.029.253-.172.332-.237h.225v1.971zm1.185.046c.532 0 .532-.507.532-1.022h.003v-.024c0-.52 0-1.001-.532-1.001-.262 0-.527.163-.527.605 0 .541.302.623.454.623.152 0 .276-.048.338-.186h.005c0 .507-.017.785-.27.785-.169 0-.225-.149-.225-.295h-.262c-.009.312.188.515.484.515zm0-1.039c-.228 0-.264-.211-.264-.408 0-.178.039-.409.264-.409.226 0 .265.231.265.409 0 .194-.037.408-.265.408zm.836-.978h1.022v.228l-.527 1.746h-.295l.552-1.746h-.752v-.228zm2.174.496c0 .253-.166.346-.403.327l-.003.003v.23c.307 0 .425.068.425.386 0 .209-.064.355-.3.355-.237 0-.268-.172-.271-.366h-.262v.023c-.003.142-.01.563.51.563.38 0 .585-.186.585-.57 0-.298-.098-.46-.408-.503v-.006l.016-.004c.121-.032.373-.1.373-.455 0-.346-.2-.512-.535-.512-.37 0-.53.205-.51.54h.262c-.003-.157.03-.32.248-.32.194 0 .273.129.273.31z" fill="#fff"/></svg>