<svg width="261" height="40" fill="none" xmlns="http://www.w3.org/2000/svg"><g opacity=".6"><path d="M199.628 11.442h.937v19.882h-.937V11.442zm-119.969.28h-3.772v21.09h3.772V18.267h4.175v-3.014H79.66v-3.53zm52 3.53h-2.584v-3.53h-3.772V22.46h-8.996l-.14-.177V14.69h7.067v-3.024H112.6v11.608c0 1.217.983 2.209 2.181 2.209h10.522v7.283h3.772v-14.5h2.584v14.5h3.782V11.722h-3.782v3.53zm30.198-3.586h-3.463v10.026h3.463v-3.67h3.96v-2.658h-3.96v-3.698zM85.051 25.614h10.372v7.152h3.772v-7.152h10.372V22.59H85.051v3.024zm12.263-8.369c1.797 3.192 5.579 3.174 5.579 3.174h5.588v-2.63h-4.287s-3.37.13-4.297-3.09h8.584v-3.023H86.137v3.023h8.584c-.927 3.211-4.297 3.09-4.297 3.09h-4.296v2.63h5.597s3.782.009 5.58-3.174h.009zm91.044-3.313v-.057a2.176 2.176 0 00-1.985-2.18v-.02h-17.954V14.7h16.485v13.564h-3.614V18.032h-3.454v10.24h-3.117v-10.24h-3.454v10.24h-4.699v3.015h24.638v-3.014h-2.846V13.932zM70.242 12.19c-2.04-1.001-5.223-.926-5.223-.926s-3.183-.066-5.224.926c0 0-3.67 1.526-3.772 6.104.103 4.587 3.772 6.103 3.772 6.103 2.032 1.002 5.224.936 5.224.936s3.182.066 5.223-.936c0 0 3.67-1.526 3.773-6.103-.103-4.587-3.773-6.104-3.773-6.104zm-2.19 9.446c-1.19.543-3.033.514-3.033.514s-1.854.029-3.043-.514c0 0-2.134-.834-2.19-3.342.056-2.5 2.19-3.342 2.19-3.342 1.18-.543 3.043-.515 3.043-.515s1.844-.028 3.033.515c0 0 2.134.842 2.19 3.342-.056 2.508-2.19 3.342-2.19 3.342zm93.815 3.922a2.19 2.19 0 00-2.163-2.2h-19.573v2.77h18.272v6.675h3.464v-7.245zm-21.671-8.64s0 1.61.646 2.602c0 0 .833 1.451 2.799 2.069.983.309 2.284.365 4.063.365 1.778 0 3.07-.066 4.053-.365 1.966-.618 2.808-2.069 2.808-2.069.646-.992.646-2.602.646-2.602s0-1.255-.449-2.238h1.844v-3.023h-7.18V10h-3.454v1.657h-7.18v3.023h1.844c-.449.983-.449 2.238-.449 2.238h.009zm11.467 1.207s-.384.674-1.301.964c-.459.14-1.825.178-2.649.178-.824 0-2.088-.028-2.537-.178-.917-.29-1.301-.964-1.301-.964-.3-.468-.3-1.207-.3-1.207s0-.75.3-1.217c0 0 .384-.674 1.301-.964.459-.15 1.713-.178 2.537-.178.824 0 2.2.028 2.649.178.917.29 1.301.964 1.301.964.3.468.3 1.217.3 1.217s0 .749-.3 1.207zm59.059 3.195h2.43v1.53h7.83v-1.53h2.43v6.804h-11.394c-.396 0-.714-.12-.954-.36-.228-.24-.342-.552-.342-.936V21.32zm2.556-8.892a8.227 8.227 0 011.332 0 7.68 7.68 0 011.854.378c.564.18 1.044.432 1.44.756.396.324.702.714.918 1.17.216.456.324.978.324 1.566 0 .588-.108 1.116-.324 1.584a3.346 3.346 0 01-.918 1.17 4.58 4.58 0 01-1.44.774 7.16 7.16 0 01-1.854.36 8.227 8.227 0 01-1.332 0 7.404 7.404 0 01-1.872-.36 4.616 4.616 0 01-1.422-.774 3.346 3.346 0 01-.918-1.17 3.737 3.737 0 01-.324-1.584c0-.588.108-1.11.324-1.566.216-.456.522-.846.918-1.17.396-.324.87-.576 1.422-.756a7.957 7.957 0 011.872-.378zm10.134 8.172h-2.484v-8.352h2.484V20.6zm-10.026-2.376c.372.036.75.036 1.134 0 .624-.06 1.146-.246 1.566-.558.432-.312.648-.768.648-1.368 0-.588-.216-1.038-.648-1.35-.432-.312-.96-.498-1.584-.558a5.78 5.78 0 00-1.116 0c-.624.06-1.152.246-1.584.558-.432.312-.648.762-.648 1.35 0 .3.054.564.162.792.12.216.282.402.486.558.204.156.438.282.702.378.276.096.57.162.882.198zm7.596 7.938V24.74h-7.83v1.422h7.83zm19.192-13.914v3.924h2.538v2.052h-2.538v3.528h-2.484v-9.504h2.484zm0 15.984h-2.43V24.47h-10.206v-1.998h11.124c.456 0 .822.138 1.098.414.276.276.414.642.414 1.098v4.248zm-10.206-6.966c-1.272-.096-2.238-.462-2.898-1.098-.66-.636-.99-1.434-.99-2.394 0-.456.078-.864.234-1.224.168-.372.36-.66.576-.864h-1.836v-1.998h4.392v-1.872h2.538v1.872h4.392v1.998h-1.818c.216.204.396.492.54.864.156.36.234.768.234 1.224 0 .948-.324 1.746-.972 2.394-.648.648-1.59 1.014-2.826 1.098-.528.036-1.05.036-1.566 0zm-1.494-3.744c0 .516.156.93.468 1.242.312.3.792.48 1.44.54.216.012.438.012.666 0 .648-.06 1.128-.24 1.44-.54.312-.312.468-.726.468-1.242 0-1.092-.636-1.698-1.908-1.818a6.164 6.164 0 00-.666 0c-1.272.12-1.908.726-1.908 1.818zM244.12 14.3h3.654v-2.124h2.556V14.3h3.438v1.98h-3.456v1.98c0 1.44.282 2.466.846 3.078.564.6 1.374.9 2.43.9h.684v2.034h-1.08c-1.116 0-2.01-.192-2.682-.576a3.546 3.546 0 01-1.458-1.674c-.312.72-.846 1.29-1.602 1.71-.744.42-1.662.63-2.754.63h-1.08v-2.034h.666c.528 0 1.008-.078 1.44-.234a2.74 2.74 0 001.098-.72c.312-.324.552-.744.72-1.26.168-.516.252-1.134.252-1.854v-1.98h-3.672V14.3zm8.55 3.6h3.114v-5.652h2.484v15.768h-2.484V19.88h-3.114V17.9z" fill="#fff"/><path d="M13.956 29.15h-.375v-2.4l-.425.283v-.358c.092-.042.358-.242.475-.334h.317v2.809h.008zm2.45-1.4c0 .733 0 1.45-.758 1.45-.425 0-.7-.284-.692-.733h.375c0 .208.084.425.317.425.358 0 .383-.4.383-1.117-.091.192-.266.267-.483.267-.217 0-.642-.117-.642-.884 0-.633.375-.858.75-.858.767 0 .758.708.758 1.458l-.008-.008zm-1.133-.608c0 .283.05.583.375.583s.375-.3.375-.584c0-.258-.059-.583-.375-.583-.317 0-.375.325-.375.584zm3.017-.809v.325l-.75 2.483h-.425l.783-2.483H16.83v-.325h1.459zm1.075 1.175c.333.034.575-.108.575-.466 0-.259-.117-.442-.392-.442-.308 0-.358.233-.358.458h-.376c-.024-.475.2-.767.726-.767.475 0 .758.242.758.726 0 .533-.392.608-.55.65.441.066.583.308.583.724 0 .55-.291.809-.833.809-.784 0-.725-.675-.725-.834h.375c0 .284.05.526.383.526.334 0 .425-.209.425-.509 0-.45-.166-.55-.6-.55v-.325h.008z" fill="#111"/><path d="M14.488 4.793L10.18 6.994l.268.526 1.825-.934.634 1.244.662-.338-.634-1.244 1.82-.929-.267-.526zm-2.628.173c.6.39 1.262.052 1.262.052l.981-.503-.234-.455-.756.385s-.577.324-1.028-.15l1.507-.77L13.319 3 9.396 5.003l.267.526 1.507-.77c.122.643-.479.92-.479.92l-.755.385.234.455.981-.502s.667-.333.7-1.051h.009zM7.158 7.801l-.502.653-.545-.418-.455.587 3.257 2.51.455-.59L7.12 8.81l.502-.647-.464-.362zM5.05 9.562c-.398.202-.774.705-.774.705s-.394.488-.483.924c0 0-.207.756.488 1.314.722.53 1.398.136 1.398.136.4-.202.775-.704.775-.704s.394-.488.483-.924c0 0 .207-.756-.493-1.32-.718-.53-1.398-.135-1.398-.135l.004.004zm1.197 1.465c-.056.248-.286.535-.286.535s-.22.295-.446.413c0 0-.385.234-.779-.056-.38-.31-.253-.742-.253-.742.056-.249.286-.535.286-.535s.216-.291.441-.413c0 0 .385-.235.78.056.38.31.252.742.252.742h.005zm15.027-9.079v.686h-.512v-.686h-.746v2.094h-1.774l-.028-.033V2.526h1.394v-.587H17.51v2.262c0 .24.192.432.431.432h2.075v1.422h.746v-2.83h.512v2.83h.746V1.948h-.746zM33.627 12.91l2.191-1.731s.005-.005.01-.005a.432.432 0 00.094-.572l-2.197-2.779-.46.366 2.018 2.553-2.074 1.643-.441-.559 1.563-1.239-.423-.534-1.567 1.243-.38-.483 1.567-1.24-.422-.534-1.568 1.239-.572-.728-.465.366 3.018 3.811.46-.366-.348-.441-.004-.01zm-3.243-7.353l-.704-.342.319-.648-.61-.3-.864 1.755.61.3.315-.643.704.348.23-.47zm-1.582 1.442a.428.428 0 00-.192-.573l-3.464-1.708-.24.488 3.234 1.59-.572 1.17.61.3.624-1.263V7zM25.709 3.6s-.141.282-.108.512c0 0 .023.329.314.605.146.141.376.263.685.418.315.155.55.258.746.291.404.061.676-.117.676-.117.202-.122.338-.4.338-.4s.108-.22.113-.43l.328.159.259-.53-1.268-.625.141-.29-.61-.301-.145.29-1.268-.623-.262.525.328.164c-.164.132-.272.352-.272.352h.005zm1.924 1.211s-.127.085-.315.057c-.094-.014-.338-.132-.483-.202-.146-.07-.366-.183-.432-.249-.136-.131-.145-.281-.145-.281-.014-.108.051-.24.051-.24s.066-.131.16-.188c0 0 .127-.084.314-.056.094.014.32.117.465.193.145.07.385.197.455.262a.47.47 0 01.146.282c.014.108-.052.24-.052.24s-.066.13-.16.187l-.004-.005zM3.44 22.66l-.137-1.188-1.21-.295-.048-.404 2.764.75c.179.048.385.114.428-.121h.018l.085.741-2.3 1.258c-.258.14-.507.254-.629.54l-.08-.709 1.108-.577v.005zm1.463-.775l-1.239-.328.108.924 1.131-.596zm.245 2.44c.207-.061.545-.141.559-.4h.018l.273.86h-.02c-.154-.193-.473-.061-.68 0l-2.562.802c-.479.15-.85-.066-1.07-.624v-.024c.455.277.718.25 1.206.094l2.28-.718-.004.01zm1.182 5.181c-.891.366-1.844-.103-2.205-.976-.357-.868-.038-1.854.859-2.225.83-.342 1.825.09 2.182 1.019.385.92-.047 1.854-.836 2.182zM5.228 26.79c-.615.253-1.061.948-.78 1.633.277.666.934.887 1.587.62.638-.263 1.089-.93.802-1.62-.277-.68-.948-.905-1.61-.633zm2.623 6.32l.22-.22c-.342.047-.694-.146-.929-.38-.22-.221-.39-.526-.375-.84.019-.371.249-.587.488-.831l.892-.897c.15-.15.418-.37.328-.614l.498.492-.484.47-.891.896c-.446.446-.465.84-.118 1.188.188.187.456.3.723.253.174-.028.254-.113.376-.235l1.004-1.009c.15-.15.413-.375.328-.624l.498.497-.483.47-1.728 1.732-.342-.338-.005-.01zm6.064 3.652l.113-.277c-.296.174-.7.131-1.005.005-.29-.122-.558-.338-.666-.634-.127-.352 0-.643.132-.953l.483-1.168c.08-.197.244-.502.066-.7l.643.268-.268.615-.483 1.168c-.24.582-.108.953.342 1.14a.832.832 0 00.765-.041c.15-.094.193-.207.258-.362l.545-1.319c.08-.197.24-.506.066-.703l.647.272-.267.62-.93 2.247-.445-.183.004.005zm5.51-1.46l-.305 2.638c-.324-.15-.45-.324-.624-.615l-1.375-2.234-.282 2.422-.338-.038.286-2.478c.033-.263.052-.45-.173-.615v-.018l.685.08c.01.065.028.089.056.13l.057.104 1.469 2.37.206-1.783c.028-.263.056-.47-.174-.639l.587.066-.075.61zm1.573 2.493l-.123-2.45c-.009-.215.005-.563-.239-.647l.69-.033.155 3.102-.479.024-.004.005zm14.224-8.449l-2.112-1.243c-.188-.113-.47-.315-.671-.155l.352-.596.563.333 2.112 1.244-.244.418zm-10.78 5.599c.047-.357.113-.77-.197-.817v-.018l.68-.165-.464 3.464c-.371-.136-.488-.15-.704-.479l-1.145-1.722c-.141-.216-.277-.465-.517-.573v-.019l.667-.16.01.057c.023.103.164.305.225.4l1.206 1.83.234-1.803.005.005zm2.482.841l-.783-1.605c-.094-.192-.22-.516-.474-.492l-.01-.015 1.361-.666c.07-.033.15-.056.193-.117h.014l.244.492h-.014c-.207-.08-.39-.014-.587.085-.15.07-.295.15-.417.24l.384.792.507-.248a.435.435 0 00.174-.118h.014l.22.446h-.009c-.127-.084-.305.01-.436.07l-.315.155.493 1.01.568-.216a1.17 1.17 0 00.662-.634l.014-.01.08.653-1.587.774-.286-.6-.01.004zm3.45-1.267l-1.502-1.924c-.136-.174-.319-.465-.563-.385l-.01-.014.888-.695c.502-.394.976-.342 1.243 0 .258.329.17.812-.08 1.122l1.066.253c.31.07.694.08 1.009.052l-.343.268c-.201.154-.356.201-.577.15l-.896-.207-.751-.258c.262-.277.502-.685.23-1.037-.212-.268-.564-.244-.808-.038-.084.07-.154.146-.23.226l1.713 2.191-.38.296h-.009zm1.966-5.335a1.061 1.061 0 00-.699.384c-.173.207-.31.535-.056.747.502.413 1.53-.855 2.206-.296.394.32.422 1.033-.047 1.6a2.397 2.397 0 01-.648.564l-.544-.268c.366-.066.727-.267.962-.55.173-.21.305-.628.047-.834-.573-.47-1.502.873-2.281.234-.46-.38-.249-.995.122-1.44a2.43 2.43 0 01.525-.48l.413.343v-.004zm5.275-6.202l-1.342-.192-1.366.596c-.225.094-.39.164-.549.37l.104-.699 1.478-.633-.789-.709c-.103-.099-.314-.235-.478.005h-.02l.118-.822 1.572 1.404 1.343.192-.07.479v.01zm-4.332 3.593l.437.338v-.014c-.07-.183-.038-.404.032-.592l.155-.39 2.586 1.02.174-.451-2.586-1.019.155-.394c.056-.146.15-.314.324-.31v-.014l-.437-.324-.844 2.15h.004z" fill="#fff"/><path d="M19.993 0C8.955 0 0 8.955 0 19.988 0 31.022 8.955 40 19.993 40c11.038 0 20.012-8.955 20.012-20.012S31.045 0 19.993 0zm0 39.409c-10.71 0-19.402-8.692-19.402-19.42C.591 9.258 9.283.59 19.993.59s19.416 8.692 19.416 19.397c0 10.705-8.692 19.42-19.416 19.42z" fill="#fff"/><path d="M4.82 16.698a.54.54 0 11-1.08 0 .54.54 0 011.08 0zm31.524 0a.54.54 0 11-1.08 0 .54.54 0 011.08 0z" fill="#fff"/><path fill-rule="evenodd" clip-rule="evenodd" d="M32.998 19.994C32.998 27.18 27.178 33 19.992 33S7.001 27.18 7.001 19.995c0-7.185 5.815-12.99 12.99-12.99 7.177 0 13.006 5.819 13.006 12.99zM17.684 8.898l-5.453 7.998s-1.324 1.647-.23 3.801l2.844 4.384s.488.863 1.488.863h2.135s-.338-.131-.549-.436l-3.173-4.881s-.516-.831-.478-1.671c0 0 .032-.737.464-1.436l2.971-4.459 3.52 5.454s.399.596-.023 1.075c0 0-.259.267-.902.06l1.23 1.897s.22.305.587.305c0 0 .258 0 .502-.291l.91-1.479s.667-.877-.033-2.243l-5.81-8.94zm9.884 12.25l-2.704 4.073h-.009c-.479.742-1.215.723-1.215.723h-2.953c-.657 0-1.107-.694-1.107-.694l-3.285-5.046c-.7-1.37-.033-2.248-.033-2.248l.915-1.473c.244-.291.502-.291.502-.291.362 0 .582.305.582.305l1.23 1.896c-.643-.211-.901.056-.901.056-.423.479-.024 1.075-.024 1.075l2.44 3.694s.259.413.61.45h1.07s.31-.01.606-.39l1.77-2.76a3.29 3.29 0 00.469-1.435c.098-.882-.587-1.924-.587-1.924l-5.12-7.796a1.33 1.33 0 00-.55-.436h2.136c1 0 1.488.868 1.488.868l4.9 7.551c1.093 2.154-.23 3.802-.23 3.802zm-10.884 9.559h-.437v-2.806l-.492.333v-.418c.108-.047.422-.286.553-.394h.376v3.285zm1.976.077c.887 0 .887-.845.887-1.704h.005v-.04c0-.867 0-1.668-.887-1.668-.436 0-.878.272-.878 1.009 0 .9.503 1.037.756 1.037s.46-.08.563-.31h.01c0 .845-.029 1.31-.451 1.31-.282 0-.375-.25-.375-.493h-.437c-.014.52.314.859.807.859zm0-1.732c-.38 0-.44-.352-.44-.68 0-.296.065-.681.44-.681.376 0 .442.385.442.68 0 .324-.061.68-.442.68zm1.393-1.63h1.704v.38l-.878 2.91h-.493l.92-2.91h-1.253v-.38zm3.623.826c0 .423-.277.578-.67.545l-.006.005v.385c.512 0 .71.112.71.642 0 .348-.109.592-.503.592s-.446-.287-.45-.61h-.437v.038c-.005.237-.018.938.85.938.633 0 .975-.31.975-.948 0-.498-.164-.77-.68-.84v-.01l.027-.007c.201-.054.62-.166.62-.758 0-.577-.332-.854-.891-.854-.615 0-.882.343-.85.901h.437c-.005-.262.052-.535.413-.535.324 0 .455.216.455.517z" fill="#fff"/></g></svg>