<svg width="158" height="28" fill="none" xmlns="http://www.w3.org/2000/svg"><path d="M126.893 13.86c-.502 0-.951-.07-1.336-.216a2.905 2.905 0 01-.951-.578 2.487 2.487 0 01-.577-.834 2.59 2.59 0 01-.193-.986v-.362c0-.344.064-.665.193-.974.128-.315.32-.595.577-.834.257-.25.572-.443.951-.59.385-.145.828-.215 1.336-.215.507 0 .945.07 1.324.216.385.146.706.344.962.589.257.24.45.52.578.834.128.31.192.636.192.974v.362c0 .344-.064.67-.192.986a2.49 2.49 0 01-.578.834 2.86 2.86 0 01-.962.577c-.379.146-.817.216-1.324.216zm0-4.224c-.257 0-.484.04-.683.117a1.31 1.31 0 00-.472.297 1.16 1.16 0 00-.269.409 1.292 1.292 0 00-.087.46v.28a1.297 1.297 0 00.356.887c.128.123.286.216.472.297.199.07.426.106.683.106.256 0 .478-.036.665-.106a1.258 1.258 0 00.84-1.184v-.28c0-.151-.029-.309-.088-.46a1.056 1.056 0 00-.28-.409 1.211 1.211 0 00-.472-.297 1.764 1.764 0 00-.665-.117zm4.865-1.756h1.616v6.148h-1.616V7.88zm1.616 6.685v5.262h-7.595v-5.262h1.604v1.348h4.386v-1.348h1.605zm-1.605 3.926v-1.242h-4.386v1.242h4.386zm7.741-9.485h2.579v1.36h-6.825v-1.36h2.63V7.723h1.616v1.283zm5.093 1.86h1.563v1.412h-1.563v3.069h-1.616V7.88h1.616v2.993-.006zm-7.613 5.018h7.613v4.083h-1.616v-2.718h-5.991v-1.36l-.006-.005zm1.709-.654a4.43 4.43 0 01-1.207-.152 2.928 2.928 0 01-.887-.437 2.02 2.02 0 01-.554-.653 1.717 1.717 0 01-.192-.794v-.408c0-.28.064-.548.192-.793a1.87 1.87 0 01.554-.642c.239-.187.537-.333.887-.438a4.02 4.02 0 011.207-.169c.455 0 .846.059 1.196.17.362.104.659.25.899.437.239.18.425.39.554.642.128.25.192.513.192.793v.408a1.7 1.7 0 01-.192.794c-.129.25-.315.466-.554.653-.24.18-.537.327-.899.438a4.16 4.16 0 01-1.196.151zm0-3.22c-.425 0-.752.094-.974.28-.221.181-.332.368-.332.566v.257c0 .198.111.39.332.577.222.181.549.269.974.269.426 0 .753-.088.975-.269.221-.186.332-.379.332-.577v-.257c0-.198-.111-.385-.332-.566-.222-.186-.549-.28-.975-.28zm8.488-2.479h2.514v-1.58h1.645v1.58h2.398v1.388h-2.398v.951c0 .251.018.473.053.683.035.204.087.402.151.589.076.18.175.356.298.525.122.169.268.35.437.537.111.128.239.268.385.425.152.146.315.298.473.461.163.152.326.315.49.473l.501.449-1.038 1.079c-.274-.257-.548-.52-.822-.782a75.928 75.928 0 01-.77-.781c-.257-.263-.473-.49-.642-.683-.163-.198-.263-.344-.309-.449h-.024c-.058.122-.186.292-.373.513-.187.222-.391.444-.601.665-.239.251-.49.508-.746.77-.257.257-.566.549-.922.875l-1.068-1.09c.7-.625 1.336-1.243 1.902-1.861.187-.216.344-.409.473-.59.128-.18.233-.361.309-.536a2.21 2.21 0 00.151-.578c.035-.204.053-.437.053-.694v-.95h-2.514V9.53h-.006zm5.979 2.607h2.094V7.88h1.628v11.935h-1.628V13.55h-2.094v-1.412zm-34.755-4.2h.583v12.39h-.583V7.938zm-74.76.175h-2.35v13.143h2.35v-9.065h2.602v-1.878H43.65v-2.2zm32.404 2.2h-1.61v-2.2h-2.35v6.691h-5.606l-.088-.11V9.963h4.404V8.078h-6.627v7.234c0 .758.613 1.377 1.36 1.377h6.556v4.538h2.351V12.19h1.61v9.036h2.357V8.113h-2.357v2.2zm18.819-2.235h-2.159v6.248h2.159v-2.287h2.467v-1.656h-2.467V8.078zM47.01 16.77h6.463v4.457h2.351V16.77h6.463v-1.884H47.011v1.884zm7.642-5.215c1.12 1.99 3.476 1.978 3.476 1.978h3.483v-1.64H58.94s-2.1.082-2.677-1.925h5.349V8.084H47.688v1.884h5.349c-.578 2.001-2.678 1.925-2.678 1.925h-2.677v1.64h3.488s2.357.006 3.477-1.978h.006zm56.735 6.866V9.455c0-.717-.543-1.3-1.237-1.359v-.012H98.963v1.884h10.272v8.453h-2.251v-6.376h-2.153v6.382h-1.942v-6.382h-2.153v6.382h-2.928v1.878h15.353v-1.878h-1.773v-.006zM37.783 8.405c-1.272-.624-3.255-.577-3.255-.577s-1.984-.041-3.255.577c0 0-2.287.951-2.351 3.804.064 2.858 2.35 3.803 2.35 3.803 1.267.624 3.256.583 3.256.583s1.983.041 3.255-.583c0 0 2.286-.951 2.35-3.803-.064-2.859-2.35-3.804-2.35-3.804zm-1.365 5.886c-.741.338-1.89.32-1.89.32s-1.155.018-1.896-.32c0 0-1.33-.52-1.365-2.082.035-1.558 1.365-2.083 1.365-2.083.735-.338 1.896-.32 1.896-.32s1.149-.018 1.89.32c0 0 1.33.525 1.365 2.083-.035 1.563-1.365 2.082-1.365 2.082zm58.461 2.444c0-.752-.6-1.365-1.347-1.37H81.334v1.726h11.387v4.16h2.158v-4.517zm-13.504-5.384s0 1.003.403 1.622c0 0 .519.904 1.744 1.289.612.192 1.423.227 2.531.227 1.109 0 1.914-.04 2.526-.227 1.225-.385 1.75-1.29 1.75-1.29.403-.618.403-1.621.403-1.621s0-.782-.28-1.394H91.6V8.073h-4.474V7.04h-2.153v1.033H80.5v1.884h1.15c-.28.612-.28 1.394-.28 1.394h.005zm7.146.752s-.24.42-.81.601c-.287.088-1.138.111-1.652.111-.513 0-1.3-.017-1.58-.11a1.483 1.483 0 01-.811-.601c-.187-.292-.187-.753-.187-.753s0-.467.187-.758c0 0 .239-.42.81-.601.286-.094 1.068-.111 1.581-.111.514 0 1.371.017 1.651.11.572.182.811.602.811.602.187.291.187.758.187.758s0 .467-.187.752z" fill="#111"/><path d="M9.078 4.686L6.44 6.034l.164.322 1.119-.572.388.762.405-.207-.388-.762 1.115-.569-.164-.322zm-1.608.106c.367.238.772.031.772.031l.601-.307-.144-.28-.462.237s-.354.198-.63-.092l.923-.472-.167-.322L5.96 4.815l.164.322.923-.472c.074.394-.294.564-.294.564l-.462.235.143.28.601-.308s.408-.205.428-.644h.006zM4.589 6.528l-.308.4-.333-.256-.279.36 1.995 1.537.279-.362-1.377-1.06.307-.397-.284-.222zM3.298 7.607c-.245.124-.475.431-.475.431s-.241.3-.296.566c0 0-.126.463.3.805.442.325.856.084.856.084.244-.124.474-.431.474-.431s.242-.3.296-.567c0 0 .127-.463-.302-.808-.44-.324-.856-.083-.856-.083l.003.003zm.733.897c-.035.152-.176.328-.176.328s-.135.18-.273.253c0 0-.235.143-.477-.035-.233-.19-.155-.454-.155-.454.034-.152.175-.328.175-.328s.132-.178.27-.253c0 0 .236-.144.478.035.232.19.155.454.155.454h.003zm9.204-5.561v.42h-.313v-.42h-.457v1.283h-1.087l-.017-.02v-.909h.854v-.36H10.93v1.386c0 .147.117.265.264.265h1.271v.87h.457V3.726h.313V5.46h.457V2.943h-.457zm7.566 6.715l1.343-1.06s.003-.004.005-.004a.265.265 0 00.058-.35l-1.345-1.702-.282.224 1.236 1.564-1.27 1.006-.27-.342.956-.759-.258-.328-.96.762-.233-.296.96-.759-.259-.328-.96.76-.35-.446-.285.224 1.848 2.334.282-.224-.213-.27-.003-.006zm-1.986-4.504l-.431-.21.195-.397-.373-.184-.53 1.075.375.184.192-.394.431.213.141-.287zm-.969.883a.262.262 0 00-.118-.35L15.607 4.64l-.147.299 1.98.974-.35.716.373.184.383-.773v-.003zm-1.895-2.082s-.086.173-.066.314c0 0 .014.2.193.37.089.087.23.161.42.256.192.095.335.158.456.179.247.037.414-.072.414-.072.124-.075.207-.245.207-.245s.066-.135.07-.264l.2.098.158-.325-.776-.383.087-.178-.374-.184-.09.178-.775-.382-.161.322.2.1a.726.726 0 00-.166.216h.003zm1.179.742s-.078.052-.193.034a1.732 1.732 0 01-.296-.123 1.408 1.408 0 01-.265-.153.288.288 0 01-.089-.172c-.008-.066.032-.147.032-.147s.04-.08.098-.115c0 0 .077-.051.192-.034.058.009.196.072.285.118.089.043.236.12.279.16a.291.291 0 01.089.173c.008.066-.032.147-.032.147s-.04.08-.098.115l-.002-.003zM2.31 15.629l-.083-.727-.741-.181-.029-.248 1.693.46c.11.03.236.07.262-.074h.011l.052.454-1.409.77c-.158.086-.31.155-.385.33l-.049-.433.679-.354v.003zm.898-.474l-.76-.202.067.567.693-.365zm.15 1.494c.126-.038.333-.086.342-.245h.011l.167.527h-.012c-.095-.118-.29-.038-.416 0l-1.57.491c-.293.092-.52-.04-.655-.382v-.015c.278.17.44.153.738.058l1.397-.44-.002.006zm.723 3.174c-.546.224-1.13-.064-1.35-.598-.22-.532-.024-1.136.525-1.363.509-.21 1.118.055 1.337.624.236.563-.029 1.135-.512 1.337zm-.675-1.665c-.377.155-.65.58-.477 1 .17.409.572.544.971.38.391-.161.667-.57.492-.992-.17-.417-.581-.555-.986-.388zm1.607 3.872l.135-.135c-.21.029-.425-.09-.569-.233-.135-.135-.238-.322-.23-.514.012-.227.152-.36.3-.51l.545-.548c.092-.092.256-.227.201-.377l.305.302-.296.287-.546.55c-.273.273-.285.514-.072.727a.512.512 0 00.443.155c.106-.017.155-.069.23-.144l.615-.618c.092-.092.253-.23.201-.382l.305.305-.296.287-1.058 1.06-.21-.206-.003-.006zm3.715 2.237l.069-.17c-.181.106-.429.08-.616.003-.178-.075-.342-.207-.408-.388-.077-.216 0-.394.08-.584l.297-.715c.049-.121.15-.308.04-.429l.394.164-.164.377-.296.716c-.147.356-.066.583.21.698a.51.51 0 00.468-.026c.092-.057.118-.126.158-.221l.334-.808c.049-.12.147-.31.04-.431l.397.167-.164.38-.57 1.376-.272-.112.003.003zm3.374-.894l-.187 1.615c-.198-.092-.275-.198-.382-.376l-.842-1.369-.173 1.484-.207-.023.176-1.518c.02-.161.031-.276-.107-.377v-.011l.42.049c.006.04.017.054.035.08l.034.063.9 1.452.126-1.092c.018-.161.035-.288-.106-.391l.36.04-.047.374zm.963 1.527l-.075-1.5c-.005-.133.003-.346-.146-.397l.422-.02.02.399.075 1.5-.293.015-.003.003zm8.713-5.175l-1.294-.762c-.115-.069-.287-.193-.41-.095l.215-.365.345.204 1.293.762-.15.256zm-6.602 3.429c.028-.219.069-.472-.121-.5v-.012l.417-.1-.285 2.12c-.227-.082-.299-.091-.431-.292l-.701-1.055c-.087-.133-.17-.285-.317-.35v-.012l.409-.098.005.034c.015.064.1.187.138.245l.739 1.12.144-1.103.003.003zm1.52.516l-.48-.984c-.058-.118-.135-.316-.29-.302l-.006-.008.833-.409c.044-.02.093-.034.118-.072h.009l.15.302h-.01c-.126-.049-.238-.008-.358.052a1.567 1.567 0 00-.256.147l.235.485.31-.152a.267.267 0 00.107-.072h.009l.135.273h-.006c-.077-.051-.187.006-.267.044l-.193.094.302.618.348-.132a.717.717 0 00.405-.388l.009-.006.049.4-.972.474-.175-.368-.006.003zm2.113-.777l-.92-1.178c-.084-.107-.196-.285-.345-.236l-.006-.009.543-.425c.308-.242.598-.21.762 0 .158.2.104.497-.049.687l.653.155c.19.043.425.049.618.032l-.21.163c-.124.095-.218.124-.354.092l-.549-.126-.46-.158c.161-.17.308-.42.141-.636-.13-.163-.345-.149-.494-.023-.052.044-.095.09-.141.138l1.05 1.343-.234.181h-.005zm1.204-3.268a.65.65 0 00-.429.235c-.106.127-.19.328-.034.457.307.253.937-.523 1.35-.18.242.195.26.632-.028.98a1.466 1.466 0 01-.397.344l-.333-.163c.224-.04.445-.164.59-.337.106-.13.186-.385.028-.511-.35-.288-.92.534-1.397.143-.282-.233-.152-.61.075-.882.092-.112.2-.213.322-.293l.253.21v-.003zm3.231-3.798l-.822-.118-.837.365c-.138.057-.238.1-.336.227l.063-.428.906-.388-.483-.434c-.063-.06-.193-.144-.293.002h-.012l.072-.503.963.86.822.118-.043.293v.006zm-2.654 2.2l.268.207v-.009a.527.527 0 01.02-.362l.095-.238 1.584.623.106-.276-1.584-.623.095-.242c.035-.089.092-.192.199-.19v-.008l-.268-.199-.517 1.317h.003z" fill="#005CA9"/><path d="M12.45 1.75C5.69 1.75.206 7.235.206 13.993S5.69 26.25 12.451 26.25c6.76 0 12.257-5.485 12.257-12.257 0-6.773-5.488-12.243-12.257-12.243zm0 24.138C5.892 25.888.568 20.564.568 13.993s5.324-11.88 11.884-11.88c6.56 0 11.892 5.323 11.892 11.88S19.019 25.888 12.45 25.888z" fill="#005CA9"/><path d="M3.157 11.977a.33.33 0 11-.661 0 .33.33 0 01.661 0zm19.309 0a.33.33 0 11-.661 0 .33.33 0 01.66 0z" fill="#005CA9"/><path fill-rule="evenodd" clip-rule="evenodd" d="M20.416 13.996a7.963 7.963 0 01-7.965 7.966 7.956 7.956 0 01-7.957-7.966 7.952 7.952 0 017.957-7.956c4.395 0 7.965 3.564 7.965 7.956zM11.037 7.2l-3.34 4.898s-.81 1.01-.141 2.329l1.742 2.684s.299.53.911.53h1.308s-.207-.081-.336-.268l-1.943-2.99s-.317-.508-.294-1.023c0 0 .02-.451.285-.88l1.82-2.73 2.155 3.34s.245.365-.014.658c0 0-.158.164-.552.038l.753 1.16s.136.188.36.188c0 0 .158 0 .307-.178l.558-.906s.408-.538-.02-1.374L11.037 7.2zm6.054 7.502l-1.656 2.496h-.006c-.293.454-.744.442-.744.442h-1.808c-.403 0-.679-.425-.679-.425l-2.012-3.09c-.428-.84-.02-1.377-.02-1.377l.56-.903c.15-.178.308-.178.308-.178.221 0 .356.187.356.187l.753 1.161c-.393-.13-.551.035-.551.035-.26.293-.015.658-.015.658l1.495 2.262s.158.253.374.276h.655s.19-.006.37-.238l1.085-1.69c.267-.43.287-.88.287-.88.06-.54-.36-1.179-.36-1.179l-3.135-4.775c-.13-.186-.337-.267-.337-.267h1.308c.612 0 .911.532.911.532l3.002 4.625c.67 1.32-.141 2.328-.141 2.328zm-6.666 5.856h-.268V18.84l-.302.204v-.256c.067-.028.26-.175.34-.241h.23v2.012zm1.21.047c.543 0 .543-.518.543-1.044h.003v-.024c0-.531 0-1.022-.543-1.022-.267 0-.537.167-.537.618 0 .552.307.636.462.636.155 0 .282-.05.345-.19h.006c0 .517-.017.802-.276.802-.172 0-.23-.153-.23-.302h-.267c-.009.319.192.526.494.526zm0-1.06c-.233 0-.27-.216-.27-.418 0-.18.04-.416.27-.416s.27.235.27.416c0 .199-.037.417-.27.417zm.853-1h1.044v.234l-.538 1.782h-.302l.564-1.782h-.768v-.233zm2.22.507c0 .259-.17.354-.412.334l-.003.003v.235c.314 0 .434.07.434.394 0 .213-.066.362-.307.362-.242 0-.273-.175-.276-.373h-.267v.023c-.003.145-.011.574.52.574.388 0 .598-.19.598-.58 0-.305-.1-.472-.417-.515v-.006l.017-.004c.123-.033.38-.102.38-.464 0-.354-.204-.523-.546-.523-.377 0-.54.21-.52.552h.267c-.003-.161.031-.328.252-.328.199 0 .28.132.28.316z" fill="#005CA9"/><path d="M11.037 7.2l-3.34 4.898s-.81 1.01-.14 2.329l1.741 2.684s.299.53.911.53h1.308s-.207-.081-.336-.268l-1.943-2.99s-.316-.508-.293-1.023c0 0 .02-.451.284-.88l1.82-2.73 2.156 3.34s.244.365-.015.658c0 0-.158.164-.552.038l.754 1.16s.135.188.359.188c0 0 .158 0 .307-.178l.558-.906s.408-.538-.02-1.374L11.037 7.2z" fill="#C49600"/><path d="M15.435 17.198l1.656-2.496s.81-1.008.14-2.328l-3-4.625s-.3-.532-.912-.532h-1.308s.207.08.337.267l3.136 4.775s.42.638.36 1.179c0 0-.021.45-.288.88l-1.084 1.69c-.181.232-.37.238-.37.238h-.656c-.216-.023-.374-.276-.374-.276l-1.495-2.262s-.244-.365.015-.658c0 0 .158-.164.551-.035l-.753-1.161s-.135-.187-.356-.187c0 0-.158 0-.308.178l-.56.903s-.408.537.02 1.377l2.012 3.09s.276.425.679.425h1.808s.451.012.744-.442h.006z" fill="#C49600"/></svg>